<svg width="32" height="30" viewBox="0 0 32 30" fill="none" xmlns="http://www.w3.org/2000/svg">
<path d="M6.0728 30.0001C5.67638 29.9108 5.27547 29.8388 4.88502 29.7286C1.86964 28.8758 -0.0863562 26.1714 0.00397808 22.9997C0.0577307 21.103 0.736358 19.4868 2.07943 18.1406C7.00302 13.205 11.9177 8.26037 16.8398 3.324C16.9935 3.17025 17.1809 3.01351 17.3818 2.95201C17.7058 2.85376 17.9977 2.98201 18.1888 3.2745C18.3792 3.56549 18.3702 3.86624 18.1686 4.14823C18.0828 4.26898 17.9678 4.36947 17.8626 4.47522C12.9531 9.40784 8.04523 14.3405 3.13358 19.2708C1.98611 20.4236 1.38139 21.7848 1.43365 23.437C1.5098 25.8414 3.7144 28.2361 6.09744 28.5106C7.85261 28.7123 9.34201 28.1709 10.5738 26.9364C16.8539 20.6418 23.1273 14.3397 29.3932 8.03013C30.5176 6.89766 30.92 5.52969 30.3115 4.01548C29.6949 2.48102 28.5242 1.5653 26.8504 1.45355C25.7508 1.38005 24.8146 1.83379 24.0381 2.61002C22.6271 4.02148 21.2213 5.4367 19.8141 6.85191C16.0932 10.5921 12.3723 14.3307 8.65442 18.0731C7.98774 18.7444 7.81006 19.6368 8.15497 20.4491C8.53721 21.3483 9.47191 22.0023 10.3611 21.9768C11.0054 21.958 11.5212 21.6573 11.9677 21.2073C13.3025 19.8618 14.6419 18.5201 15.979 17.1761C18.4247 14.7192 20.8697 12.2608 23.3199 9.80758C23.4573 9.67034 23.6201 9.52634 23.7977 9.46934C24.1329 9.36134 24.4383 9.45959 24.6503 9.76333C24.8608 10.0633 24.8414 10.3956 24.6003 10.6971C24.5458 10.7646 24.4823 10.8261 24.4211 10.8876C20.6472 14.6795 16.8748 18.4736 13.0972 22.2618C11.7467 23.6162 9.54881 23.8015 8.03776 22.705C6.23033 21.394 6.03398 18.4766 7.63686 16.8754C9.85191 14.6637 12.061 12.4468 14.2708 10.2291C17.1317 7.35815 19.985 4.47897 22.8511 1.6133C25.0639 -0.599147 28.6915 -0.522649 30.7132 1.76254C32.4497 3.72524 32.4265 7.00791 30.6594 8.94285C30.5079 9.1086 30.3481 9.2661 30.1898 9.42509C24.0926 15.5502 17.9895 21.67 11.9012 27.8041C10.7246 28.9898 9.3547 29.7346 7.69733 29.9356C7.65179 29.9408 7.60923 29.9776 7.56593 30.0001C7.06797 30.0001 6.57001 30.0001 6.0728 30.0001Z" fill="#5F5F5F"/>
</svg>
