<svg width="34" height="29" viewBox="0 0 34 29" fill="none" xmlns="http://www.w3.org/2000/svg">
<path d="M31.049 2.18719C31.049 7.02188 31.049 11.8239 31.049 16.6522C21.9145 16.6522 12.8052 16.6522 3.65347 16.6522C3.65347 11.8366 3.65347 7.02461 3.65347 2.18719C12.7772 2.18719 21.8883 2.18719 31.049 2.18719ZM29.5844 15.2204C29.5844 11.3282 29.5844 7.47948 29.5844 3.6317C21.4007 3.6317 13.2522 3.6317 5.10005 3.6317C5.10005 7.50853 5.10005 11.3563 5.10005 15.2204C13.2702 15.2204 21.407 15.2204 29.5844 15.2204Z" fill="#5F5F5F"/>
<path d="M5.83598 23.2274C6.16918 23.2274 6.43736 23.222 6.70464 23.2283C7.38007 23.2456 7.96701 23.7195 7.98327 24.3868C8.02119 25.9112 7.995 27.4366 7.995 28.9946C5.34295 28.9946 2.70534 28.9946 0.00181104 28.9946C0.00181104 28.6441 0.00181104 28.3027 0.00181104 27.9604C0.00181104 26.9327 0.000908063 25.904 5.08112e-06 24.8762C-0.00180088 23.7059 0.477682 23.2229 1.63982 23.2256C1.80507 23.2256 1.96941 23.2256 2.21953 23.2256C1.71928 22.5746 1.40775 21.9037 1.5134 21.1183C1.61995 20.3293 1.99559 19.6947 2.67103 19.2607C3.68959 18.6061 5.01246 18.7704 5.84771 19.6511C6.75341 20.6044 6.76695 21.8483 5.83598 23.2274ZM1.47728 27.5573C3.17399 27.5573 4.84902 27.5573 6.53488 27.5573C6.53488 26.5867 6.53488 25.6452 6.53488 24.701C4.82915 24.701 3.15502 24.701 1.47728 24.701C1.47728 25.6688 1.47728 26.6013 1.47728 27.5573ZM5.10095 21.3807C5.09282 20.7869 4.58625 20.2948 3.9957 20.3103C3.42863 20.3248 2.94192 20.8232 2.94011 21.3925C2.93831 21.9799 3.44759 22.492 4.02911 22.4875C4.61966 22.482 5.10908 21.9772 5.10095 21.3807Z" fill="#5F5F5F"/>
<path d="M14.4766 23.2274C14.8279 23.2274 15.0933 23.222 15.3588 23.2283C16.0785 23.2465 16.651 23.7422 16.6654 24.4622C16.6961 25.9575 16.6745 27.4538 16.6745 28.9873C14.0197 28.9873 11.3839 28.9873 8.74267 28.9873C8.72913 28.97 8.69662 28.9482 8.69662 28.9255C8.6912 27.4302 8.66231 25.933 8.69752 24.4386C8.71468 23.7159 9.29078 23.2419 10.0222 23.2283C10.2877 23.2229 10.5532 23.2274 10.8963 23.2274C10.3346 22.5011 10.0385 21.7738 10.2209 20.9095C10.3554 20.2749 10.6669 19.7591 11.1798 19.3715C12.1749 18.6206 13.5565 18.7178 14.4441 19.573C15.2676 20.3675 15.6099 21.8692 14.4766 23.2274ZM15.2017 27.56C15.2017 26.584 15.2017 25.6425 15.2017 24.7019C13.4942 24.7019 11.82 24.7019 10.1468 24.7019C10.1468 25.6697 10.1468 26.6022 10.1468 27.56C11.8327 27.56 13.4951 27.56 15.2017 27.56ZM13.7714 21.4025C13.775 20.8105 13.2738 20.3066 12.6869 20.3094C12.1018 20.313 11.5979 20.8296 11.6087 21.4143C11.6196 21.9854 12.1081 22.4775 12.6752 22.4884C13.254 22.5002 13.7678 21.9917 13.7714 21.4025Z" fill="#5F5F5F"/>
<path d="M26.0059 28.9991C26.0059 28.4661 26.0059 27.9559 26.0059 27.4465C26.0068 26.5395 26.0005 25.6316 26.0095 24.7246C26.0194 23.7268 26.5296 23.2301 27.5247 23.2274C27.7333 23.2265 27.941 23.2274 28.2344 23.2274C27.6222 22.4611 27.3441 21.6631 27.5906 20.7488C27.745 20.175 28.0611 19.7056 28.5396 19.3551C29.5221 18.636 30.8513 18.7123 31.7353 19.5331C32.7521 20.4773 32.8062 21.6967 31.8581 23.2292C32.185 23.2292 32.4784 23.2174 32.7701 23.232C33.3796 23.261 33.9602 23.715 33.9765 24.3133C34.0189 25.8649 33.9909 27.4193 33.9909 29C31.3362 28.9991 28.6986 28.9991 26.0059 28.9991ZM32.5507 24.691C30.8332 24.691 29.1699 24.691 27.4877 24.691C27.4877 25.6579 27.4877 26.6004 27.4877 27.5546C29.1898 27.5546 30.8648 27.5546 32.5507 27.5546C32.5507 26.5904 32.5507 25.6588 32.5507 24.691ZM31.1086 21.4179C31.1204 20.826 30.6273 20.3148 30.0395 20.3094C29.4562 20.3039 28.9451 20.8151 28.946 21.4007C28.9469 21.969 29.43 22.4675 29.9989 22.4884C30.5786 22.5102 31.0969 22.009 31.1086 21.4179Z" fill="#5F5F5F"/>
<path d="M23.1579 23.2274C23.5055 23.2274 23.7719 23.2211 24.0374 23.2283C24.7354 23.2483 25.3106 23.7286 25.3268 24.4268C25.363 25.9358 25.3377 27.4465 25.3377 28.9909C22.6847 28.9909 20.048 28.9909 17.3643 28.9909C17.3553 28.8338 17.3391 28.675 17.3391 28.5152C17.3373 27.2913 17.3354 26.0665 17.3382 24.8426C17.3409 23.6995 17.8176 23.2265 18.9608 23.2256C19.1351 23.2256 19.3103 23.2256 19.5667 23.2256C19.006 22.5083 18.7134 21.792 18.8795 20.9458C19.0033 20.3112 19.3067 19.7891 19.8141 19.3923C20.8047 18.6197 22.2125 18.7041 23.1145 19.5748C23.8866 20.3202 24.3191 21.772 23.1579 23.2274ZM23.8685 27.5609C23.8685 26.5822 23.8685 25.6398 23.8685 24.7037C22.1601 24.7037 20.4869 24.7037 18.819 24.7037C18.819 25.6734 18.819 26.6049 18.819 27.5609C20.5094 27.5609 22.1718 27.5609 23.8685 27.5609ZM22.44 21.398C22.44 20.8069 21.9361 20.303 21.3501 20.3103C20.7812 20.3166 20.2927 20.8024 20.2774 21.3762C20.262 21.959 20.7659 22.482 21.3501 22.4893C21.9325 22.4965 22.44 21.989 22.44 21.398Z" fill="#5F5F5F"/>
<path d="M33.9169 18.8449C33.4464 18.8449 33.0121 18.8449 32.538 18.8449C32.538 12.5684 32.538 6.30372 32.538 0.0108951C32.9877 0.0108951 33.432 0.0108951 33.9169 0.0108951C33.9169 6.27103 33.9169 12.5357 33.9169 18.8449Z" fill="#5F5F5F"/>
<path d="M0.747674 0C1.23438 0 1.66691 0 2.13917 0C2.13917 6.27012 2.13917 12.533 2.13917 18.8258C1.68316 18.8258 1.22806 18.8258 0.747674 18.8258C0.747674 12.5502 0.747674 6.29736 0.747674 0Z" fill="#5F5F5F"/>
</svg>
