<?xml version="1.0"?>
<svg xmlns="http://www.w3.org/2000/svg" id="Layer_3" enable-background="new 0 0 64 64" height="512px" viewBox="0 0 64 64" width="512px"><g><path d="m57 46h-7v-35h-2v35h-2.586l-2.707-2.707c-.187-.188-.442-.293-.707-.293h-9c-.552 0-1 .448-1 1v11h-24v-42h9c.552 0 1-.448 1-1v-9h26v40h2v-41c0-.552-.448-1-1-1h-28c-.276 0-.526.112-.707.293l-9.999 9.999c-.182.182-.294.432-.294.708v44c0 .552.448 1 1 1h25v2h-18v2h18v1c0 .552.448 1 1 1h24c.552 0 1-.448 1-1v-15c0-.552-.448-1-1-1zm-47.586-35 6.586-6.586v6.586zm32.172 34 2.707 2.707c.187.188.442.293.707.293h11v2h-19c-.42 0-.796.263-.94.658l-2.06 5.665v-11.323zm-7.158 16 3.272-9h18.3v9z" fill="#FFFFFF"/><path d="m10 15h2v2h-2z" fill="#FFFFFF"/><path d="m14 15h2v2h-2z" fill="#FFFFFF"/><path d="m18 15h24v2h-24z" fill="#FFFFFF"/><path d="m40 19h2v2h-2z" fill="#FFFFFF"/><path d="m36 19h2v2h-2z" fill="#FFFFFF"/><path d="m10 19h24v2h-24z" fill="#FFFFFF"/><path d="m10 23h2v2h-2z" fill="#FFFFFF"/><path d="m14 23h2v2h-2z" fill="#FFFFFF"/><path d="m18 23h24v2h-24z" fill="#FFFFFF"/><path d="m40 27h2v2h-2z" fill="#FFFFFF"/><path d="m36 27h2v2h-2z" fill="#FFFFFF"/><path d="m10 27h24v2h-24z" fill="#FFFFFF"/><path d="m10 31h2v2h-2z" fill="#FFFFFF"/><path d="m14 31h2v2h-2z" fill="#FFFFFF"/><path d="m18 31h24v2h-24z" fill="#FFFFFF"/><path d="m40 35h2v2h-2z" fill="#FFFFFF"/><path d="m36 35h2v2h-2z" fill="#FFFFFF"/><path d="m10 35h24v2h-24z" fill="#FFFFFF"/></g></svg>
