<svg width="19" height="14" viewBox="0 0 19 14" fill="none" xmlns="http://www.w3.org/2000/svg">
<path d="M9.19559 13.9991C5.14969 13.9712 1.49361 11.1989 0.223552 7.17603C0.188552 7.06515 0.185736 6.91873 0.223954 6.81039C1.48556 3.21243 3.89693 0.958521 7.4633 0.191278C12.1074 -0.80745 16.6457 2.19424 18.1371 6.66058C18.2183 6.90392 18.2155 7.11593 18.1286 7.34996C16.8111 10.9001 14.3659 13.0457 10.8337 13.8375C10.6443 13.8798 10.4512 13.909 10.2581 13.9259C9.90444 13.9576 9.54961 13.9754 9.19559 13.9991ZM9.1968 13.1197C9.76122 13.0503 10.3357 13.0292 10.8885 12.9035C13.9954 12.1976 16.1167 10.2632 17.2685 7.15106C17.3047 7.05373 17.2963 6.91534 17.2609 6.81462C15.8247 2.70841 11.9119 0.290304 7.77106 1.04274C4.53256 1.63097 2.33119 3.62292 1.13234 6.8379C1.09774 6.93015 1.10137 7.0605 1.13435 7.15487C2.38268 10.7503 5.56164 13.0863 9.1968 13.1197Z" fill="white"/>
<path d="M4.90093 6.98735C4.90133 4.5722 6.89592 2.47317 9.19103 2.4719C11.5099 2.47021 13.5041 4.57135 13.4988 7.01105C13.494 9.42535 11.4958 11.5185 9.19827 11.5163C6.88949 11.5142 4.90012 9.41773 4.90093 6.98735ZM12.6246 6.99454C12.6271 4.9391 11.1627 3.39361 9.21034 3.39149C7.25035 3.38938 5.77955 4.92218 5.77512 6.97296C5.7707 9.03771 7.22621 10.5921 9.16971 10.5972C11.1551 10.6018 12.6222 9.07199 12.6246 6.99454Z" fill="white"/>
<path d="M9.21072 9.25384C8.07583 9.23183 7.09704 8.22464 7.05279 7.07018C7.04112 6.76675 7.21934 6.54119 7.47561 6.53527C7.72221 6.52934 7.89882 6.73078 7.9121 7.03252C7.94348 7.75405 8.31721 8.20644 8.98101 8.32621C9.59371 8.43666 10.165 8.12646 10.381 7.56404C10.6678 6.81838 10.3979 5.68847 9.22842 5.63895C8.9456 5.6271 8.7521 5.43159 8.76296 5.1726C8.77382 4.90938 8.98141 4.71598 9.25859 4.73671C10.175 4.80569 10.8183 5.30929 11.1788 6.17767C11.5316 7.02744 11.3429 7.80865 10.768 8.48532C10.3484 8.98088 9.81577 9.25003 9.21072 9.25384Z" fill="white"/>
</svg>
