<svg width="17" height="13" viewBox="0 0 17 13" fill="none" xmlns="http://www.w3.org/2000/svg">
<path d="M8.10971 12.4445C4.51336 12.4197 1.26352 9.9554 0.134585 6.37954C0.103474 6.28099 0.100971 6.15083 0.134943 6.05453C1.25637 2.85636 3.3998 0.852885 6.5699 0.170892C10.698 -0.716864 14.7321 1.9513 16.0577 5.92137C16.1299 6.13767 16.1274 6.32613 16.0502 6.53415C14.879 9.68982 12.7056 11.597 9.56585 12.3008C9.39742 12.3384 9.22577 12.3644 9.05413 12.3794C8.7398 12.4076 8.4244 12.4234 8.10971 12.4445ZM8.11079 11.6628C8.6125 11.6011 9.12314 11.5823 9.61448 11.4706C12.3762 10.8432 14.2618 9.12369 15.2856 6.35735C15.3178 6.27083 15.3103 6.14782 15.2788 6.0583C14.0022 2.40834 10.5242 0.258916 6.84346 0.927742C3.96481 1.45062 2.00804 3.22124 0.942397 6.07899C0.911644 6.16099 0.914862 6.27685 0.944185 6.36074C2.05381 9.55666 4.87954 11.6331 8.11079 11.6628Z" fill="#5F5F5F"/>
<path d="M4.29224 6.21183C4.2926 4.06503 6.06557 2.19924 8.10566 2.19811C10.1669 2.1966 11.9395 4.06428 11.9348 6.2329C11.9305 8.37894 10.1543 10.2395 8.1121 10.2376C6.05985 10.2357 4.29153 8.37217 4.29224 6.21183ZM11.1578 6.21822C11.1599 4.39117 9.85824 3.0174 8.12283 3.01552C6.38061 3.01364 5.07324 4.37613 5.0693 6.19904C5.06537 8.03437 6.35915 9.41604 8.08671 9.42055C9.85145 9.42469 11.1556 8.06484 11.1578 6.21822Z" fill="#5F5F5F"/>
<path d="M8.12316 8.22648C7.11438 8.20692 6.24434 7.31164 6.20501 6.28546C6.19463 6.01575 6.35305 5.81525 6.58084 5.80998C6.80005 5.80472 6.95703 5.98377 6.96883 6.25198C6.99673 6.89334 7.32893 7.29547 7.91897 7.40192C8.46359 7.5001 8.97138 7.22437 9.16341 6.72445C9.41838 6.06164 9.17843 5.05727 8.13889 5.01326C7.8875 5.00273 7.7155 4.82894 7.72515 4.59872C7.73481 4.36475 7.91933 4.19284 8.16571 4.21127C8.98032 4.27259 9.55212 4.72023 9.87253 5.49212C10.1861 6.24747 10.0184 6.94187 9.50742 7.54336C9.13445 7.98385 8.66099 8.2231 8.12316 8.22648Z" fill="#5F5F5F"/>
</svg>
