<svg width="26" height="24" viewBox="0 0 26 24" fill="none" xmlns="http://www.w3.org/2000/svg">
<path d="M25.2587 17.2818C25.261 13.1093 25.2646 9.32492 25.2704 5.71327C25.2728 4.16383 24.1433 2.80586 22.6426 2.55564C22.2138 2.48399 21.7692 2.48986 21.3387 2.49515C21.1866 2.49691 21.0297 2.49926 20.8764 2.4975C20.8723 2.4975 20.8682 2.4975 20.8641 2.4975C20.6162 2.4975 20.4095 2.57268 20.2662 2.71423C20.1364 2.84286 20.0671 3.01731 20.0671 3.21936C20.0659 3.65517 20.3819 3.94063 20.8723 3.9465C21.0562 3.94885 21.24 3.94885 21.4238 3.94885C21.6664 3.94944 21.9172 3.94944 22.1633 3.95414C23.2358 3.97528 23.8261 4.58085 23.8261 5.66041L23.8267 14.6287C23.8273 16.7285 23.8273 18.8289 23.8255 20.9287C23.825 21.7328 23.3774 22.3172 22.6285 22.4911C22.4041 22.5434 22.1651 22.5475 21.9202 22.5475C15.7582 22.5504 9.61271 22.5498 3.33388 22.5492C3.20701 22.5492 3.07133 22.5439 2.93037 22.5328C2.04405 22.4647 1.44847 21.8362 1.44729 20.9692C1.44259 15.8804 1.44259 10.6846 1.44729 5.52473C1.44788 4.6108 2.08986 3.96471 3.0079 3.95355C3.78791 3.94357 4.58142 3.94533 5.34851 3.94709C5.62515 3.94768 5.90121 3.94827 6.17786 3.94827C6.20487 3.94827 6.23542 3.95414 6.27066 3.9606V4.4111C6.27007 4.81109 6.27007 5.20638 6.27125 5.60167C6.27301 6.1115 6.55787 6.44159 6.99604 6.44218H6.99722C7.21454 6.44218 7.39838 6.36171 7.52819 6.209C7.65506 6.05981 7.7226 5.85012 7.7226 5.60285C7.72378 4.08923 7.72378 2.48869 7.7226 0.845852C7.72201 0.336615 7.44008 0.00475913 7.00368 6.02827e-05C6.80633 -0.00228914 6.63423 0.0640821 6.5056 0.190951C6.35347 0.340727 6.27242 0.563334 6.27125 0.834105C6.26948 1.2294 6.27007 1.6241 6.27007 2.02879V2.48692C6.24481 2.49104 6.22778 2.49338 6.21251 2.49338C5.72148 2.49397 5.23045 2.49397 4.73942 2.49456C4.22255 2.49456 3.70568 2.49515 3.18822 2.49573C2.34595 2.49691 1.54714 2.83405 0.939818 3.44549C0.328968 4.06104 -0.00464988 4.86865 4.89668e-05 5.71973C0.0088593 7.16404 0.0129708 8.62597 0.0117961 10.0644C0.0112087 12.2188 0.00827195 14.3732 0.00592252 16.5277C0.00416046 17.9455 0.00239839 19.3634 0.00122368 20.7807C4.89668e-05 21.8579 0.512223 22.5933 0.94158 23.0209C1.55889 23.6347 2.39587 24 3.18352 24C3.1888 24 3.19409 24 3.19879 24C9.42241 23.9624 15.7747 23.9624 22.0776 24C22.0829 24 22.0876 24 22.0928 24C22.8787 24 23.7145 23.6347 24.3313 23.0203C24.7612 22.5927 25.2728 21.8556 25.2704 20.7748C25.2693 20.2809 25.2675 19.7869 25.2652 19.2935C25.2616 18.6345 25.2587 17.9526 25.2587 17.2818Z" fill="#5F5F5F"/>
<path d="M7.71438 18.7625C9.03299 20.0923 10.8156 20.8576 12.6065 20.8635C12.6135 20.8635 12.62 20.8635 12.6264 20.8635C14.4466 20.8635 16.1864 20.1293 17.5267 18.7943C18.8718 17.4545 19.6148 15.7089 19.6189 13.8799C19.623 12.0796 18.8935 10.3475 17.5655 9.00246C16.261 7.68091 14.5013 6.90913 12.7386 6.88504C10.9302 6.86037 9.12051 7.60867 7.76841 8.93785C6.40927 10.2735 5.65746 12.0179 5.65041 13.8505C5.64454 15.6431 6.39635 17.4334 7.71438 18.7625ZM12.6247 19.411C12.6211 19.411 12.617 19.411 12.6135 19.411C11.094 19.4086 9.69259 18.8407 8.66883 17.8122C7.64448 16.7837 7.0818 15.3794 7.08356 13.8575C7.08532 12.3416 7.65506 10.9413 8.68704 9.91404C9.71609 8.88969 11.1152 8.32642 12.6282 8.32642C12.6329 8.32642 12.637 8.32642 12.6417 8.32642C14.1694 8.32994 15.5767 8.90144 16.6046 9.93577C17.6307 10.9683 18.1928 12.3768 18.1863 13.9004C18.174 17.0439 15.7835 19.411 12.6247 19.411Z" fill="#5F5F5F"/>
<path d="M9.60331 3.94709C9.66851 3.94768 9.73429 3.94768 9.79949 3.94709L17.2072 3.93064C17.2906 3.93064 17.374 3.93064 17.4709 3.93064H17.5479V4.16559C17.5479 4.32006 17.5473 4.47512 17.5467 4.6296C17.545 4.97849 17.5432 5.33912 17.5508 5.69389C17.5561 5.94586 17.6636 6.16906 17.8451 6.30532C17.9661 6.39578 18.1135 6.44335 18.268 6.44335C18.3355 6.44335 18.4048 6.43454 18.473 6.41575C18.8066 6.32647 18.9987 6.03984 18.9992 5.62986C19.001 4.49098 19.0004 3.35269 19.0004 2.2138V1.13836C19.0004 1.09548 19.001 1.0526 19.0016 1.00972C19.0034 0.905763 19.0051 0.798277 18.9969 0.691378C18.9664 0.294913 18.6644 0.00417177 18.2797 0.000647638C18.2774 0.000647638 18.2756 0.000647638 18.2733 0.000647638C17.8909 0.000647638 17.5878 0.285515 17.552 0.680806C17.5438 0.768909 17.5455 0.856425 17.5467 0.941591C17.5473 0.974483 17.5479 1.00796 17.5479 1.04085C17.5479 1.39327 17.5479 1.74509 17.5479 2.10456V2.48927L9.83532 2.49515C9.7525 2.49456 9.66969 2.49456 9.58687 2.49632C9.09819 2.50513 8.78513 2.79352 8.78924 3.23052C8.79394 3.65929 9.11346 3.94122 9.60331 3.94709Z" fill="#5F5F5F"/>
<path d="M15.3324 14.4173C15.1814 14.3415 15.0317 14.264 14.8813 14.1865C14.4983 13.9891 14.1025 13.7847 13.7001 13.6103C13.427 13.4916 13.3424 13.3512 13.3518 13.0317C13.373 12.3063 13.3683 11.5686 13.3636 10.8556C13.3624 10.6412 13.3606 10.4268 13.36 10.2124C13.3583 9.72785 13.0693 9.40069 12.6399 9.39834H12.6352C12.2047 9.39834 11.9134 9.72138 11.9099 10.2036C11.9069 10.62 11.9075 11.0435 11.9081 11.4529C11.9081 11.6332 11.9087 11.8135 11.9087 11.9939C11.9087 12.1636 11.9099 12.3334 11.9104 12.5025C11.9128 12.8931 11.9151 13.2972 11.9046 13.6931C11.8934 14.1219 12.0661 14.4061 12.4467 14.587C12.9612 14.832 13.4787 15.0933 13.9797 15.3459C14.2193 15.4669 14.459 15.5879 14.6992 15.7077C14.8666 15.7911 15.027 15.8322 15.1732 15.8322C15.4334 15.8322 15.649 15.7024 15.7764 15.4534C15.8675 15.2754 15.8868 15.0933 15.8328 14.9271C15.7682 14.7257 15.5949 14.5494 15.3324 14.4173Z" fill="#5F5F5F"/>
</svg>
