<svg width="31" height="26" viewBox="0 0 31 26" fill="none" xmlns="http://www.w3.org/2000/svg">
<path d="M14.9996 25.7204C14.6041 25.7214 14.2123 25.6442 13.8467 25.4931C13.4812 25.3421 13.1491 25.1203 12.8696 24.8404L2.56962 14.5404C1.75596 13.7179 1.11411 12.7417 0.681466 11.6687C0.248823 10.5957 0.0340364 9.4473 0.0496192 8.29045C0.0574589 7.23029 0.274378 6.18209 0.687951 5.20589C1.10152 4.2297 1.70363 3.34468 2.45977 2.60155C3.21591 1.85841 4.11123 1.27175 5.09446 0.875176C6.07768 0.478599 7.12948 0.279896 8.18962 0.290448C9.26873 0.279578 10.339 0.485524 11.3371 0.896071C12.3351 1.30662 13.2405 1.91341 13.9996 2.68045L14.9996 3.68045L15.8196 2.86045C17.2355 1.40702 19.1302 0.515961 21.1527 0.352322C23.1752 0.188684 25.1885 0.763551 26.8196 1.97045C27.7481 2.6855 28.5137 3.59017 29.0652 4.62421C29.6168 5.65825 29.9417 6.79793 30.0183 7.96737C30.0949 9.1368 29.9215 10.3091 29.5097 11.4063C29.0978 12.5035 28.4569 13.5003 27.6296 14.3304L17.1296 24.8404C16.8501 25.1203 16.518 25.3421 16.1525 25.4931C15.7869 25.6442 15.3951 25.7214 14.9996 25.7204ZM8.14962 2.28045C6.56014 2.27883 5.03238 2.89567 3.88962 4.00045C3.30702 4.56099 2.84371 5.2335 2.52752 5.97758C2.21132 6.72166 2.04877 7.52197 2.04962 8.33045C2.04085 9.21976 2.2087 10.102 2.54344 10.9259C2.87817 11.7499 3.37313 12.4992 3.99962 13.1304L14.2996 23.4304C14.3926 23.5242 14.5032 23.5986 14.625 23.6493C14.7469 23.7001 14.8776 23.7262 15.0096 23.7262C15.1416 23.7262 15.2723 23.7001 15.3942 23.6493C15.5161 23.5986 15.6267 23.5242 15.7196 23.4304L26.2296 12.9104C26.8465 12.2805 27.3232 11.5271 27.6282 10.6998C27.9333 9.87257 28.0599 8.99011 27.9996 8.11045C27.9462 7.22176 27.7014 6.35511 27.282 5.5698C26.8626 4.78449 26.2785 4.09907 25.5696 3.56045C24.3257 2.64334 22.7909 2.2097 21.251 2.34033C19.7111 2.47095 18.2712 3.15693 17.1996 4.27045L15.7096 5.80045C15.6167 5.89418 15.5061 5.96857 15.3842 6.01934C15.2623 6.07011 15.1316 6.09625 14.9996 6.09625C14.8676 6.09625 14.7369 6.07011 14.615 6.01934C14.4932 5.96857 14.3826 5.89418 14.2896 5.80045L12.5896 4.10045C11.4187 2.93972 9.83833 2.28602 8.18962 2.28045H8.14962Z" fill="#FFC700"/>
</svg>
