<svg width="29" height="29" viewBox="0 0 29 29" fill="none" xmlns="http://www.w3.org/2000/svg">
<path d="M4.35701 7.23591C4.35701 7.06139 4.35701 6.93849 4.35701 6.81558C4.35701 5.32168 4.3543 3.82846 4.35837 2.33456C4.36176 0.995481 5.35416 0.00271618 6.69545 0.00203714C11.8984 -0.000679045 17.102 -0.000679045 22.3049 0.00203714C23.6455 0.00271618 24.6359 0.997518 24.6393 2.33863C24.6427 3.83253 24.64 5.32575 24.6406 6.81965C24.6406 6.94256 24.6406 7.06547 24.6406 7.20535C25.0595 7.23387 25.4532 7.23319 25.838 7.29091C27.5051 7.53944 28.9028 8.97359 28.9544 10.6474C29.0195 12.7606 29.0121 14.8799 28.9408 16.9931C28.9014 18.1645 28.2505 19.0757 27.2737 19.7276C26.8739 19.9945 26.4313 19.9164 26.1985 19.5647C25.9623 19.2082 26.0797 18.7546 26.5012 18.4965C27.2146 18.0592 27.5323 17.4168 27.5323 16.5966C27.5323 14.7068 27.5364 12.817 27.5309 10.9272C27.5269 9.54602 26.6872 8.71147 25.3052 8.71147C18.575 8.71147 11.8448 8.71487 5.11454 8.71623C4.60545 8.71623 4.09636 8.7074 3.58726 8.71215C2.36069 8.7237 1.49251 9.53108 1.47487 10.7602C1.44568 12.7627 1.4545 14.7658 1.47351 16.7684C1.48097 17.537 1.8611 18.1176 2.52699 18.5149C2.86231 18.7152 2.97975 19.0099 2.88879 19.3487C2.80326 19.6672 2.5813 19.8662 2.25955 19.8736C2.07084 19.8777 1.85227 19.8091 1.69479 19.7025C0.722765 19.0452 0.0860589 18.1285 0.0514405 16.9544C-0.0110083 14.8297 -0.0252629 12.6995 0.0507617 10.5755C0.113889 8.79907 1.81833 7.26918 3.59948 7.23523C3.8357 7.23251 4.07192 7.23591 4.35701 7.23591ZM5.80895 7.21146C11.6235 7.21146 17.3952 7.21146 23.1887 7.21146C23.1887 7.07565 23.1887 6.96429 23.1887 6.85293C23.1887 5.37057 23.1887 3.88889 23.1887 2.40654C23.1887 1.61681 23.0258 1.45316 22.2357 1.45316C17.0674 1.45316 11.8991 1.45316 6.73075 1.45316C6.64047 1.45316 6.54951 1.44976 6.45923 1.45723C6.03974 1.49322 5.84968 1.68064 5.8137 2.09893C5.8042 2.21097 5.80895 2.32505 5.80895 2.43845C5.80895 4.02063 5.80895 5.6028 5.80895 7.21146Z" fill="#5F5F5F"/>
<path d="M4.35796 15.9454C4.10477 15.9454 3.91335 15.9494 3.72193 15.9447C3.23728 15.9318 2.90739 15.6391 2.90331 15.2229C2.89924 14.7903 3.23728 14.4942 3.74162 14.4942C9.88468 14.4936 16.0277 14.4936 22.1708 14.4936C23.2005 14.4936 24.2296 14.4929 25.2593 14.4942C25.7616 14.4949 26.101 14.7937 26.0956 15.2249C26.0901 15.6418 25.7616 15.9318 25.2749 15.9447C25.0842 15.9494 24.8928 15.9454 24.6409 15.9454C24.6409 16.1111 24.6409 16.2523 24.6409 16.3935C24.6409 19.7772 24.607 23.1616 24.6579 26.5446C24.6776 27.8776 23.5365 29.0109 22.2027 29C17.0554 28.9586 11.9082 28.962 6.76088 28.998C5.46032 29.0075 4.32606 27.8762 4.34303 26.5765C4.38851 23.182 4.35796 19.7861 4.35796 16.3908C4.35796 16.2584 4.35796 16.126 4.35796 15.9454ZM23.1897 15.9725C17.3711 15.9725 11.6 15.9725 5.8099 15.9725C5.8099 16.1002 5.8099 16.2014 5.8099 16.3025C5.8099 19.7521 5.80922 23.2023 5.8099 26.6519C5.8099 27.3445 5.99928 27.5313 6.70047 27.5313C11.8905 27.5319 17.0799 27.5319 22.2699 27.5313C23.0118 27.5313 23.189 27.354 23.1897 26.6132C23.1903 23.186 23.1897 19.7589 23.1897 16.3317C23.1897 16.219 23.1897 16.1063 23.1897 15.9725Z" fill="#5F5F5F"/>
<path d="M22.4532 12.3173C22.2048 12.3173 21.9571 12.3248 21.7093 12.3153C21.321 12.3003 21.0305 12.0056 21.0176 11.626C21.004 11.2329 21.2538 10.9056 21.6475 10.8852C22.1872 10.8567 22.7302 10.8573 23.2698 10.8831C23.6534 10.9015 23.9364 11.2498 23.9228 11.6152C23.9093 12.0009 23.5991 12.3044 23.1972 12.3159C22.9501 12.3234 22.7017 12.318 22.4532 12.3173Z" fill="#5F5F5F"/>
<path d="M14.5168 18.8394C16.1894 18.8394 17.8619 18.8373 19.5345 18.8407C19.9777 18.8414 20.2784 19.1259 20.2927 19.5368C20.3063 19.9476 20.0212 20.2525 19.5847 20.2871C19.4836 20.2953 19.3817 20.2919 19.2799 20.2919C16.4548 20.2919 13.6297 20.2919 10.8045 20.2912C10.3301 20.2912 9.85491 20.3014 9.38111 20.2803C9.01321 20.264 8.76613 20.0162 8.71793 19.6712C8.66838 19.3208 8.84147 19.0044 9.17001 18.889C9.29355 18.8455 9.43474 18.8414 9.56846 18.8407C11.2172 18.838 12.8674 18.8387 14.5168 18.8394Z" fill="#5F5F5F"/>
<path d="M13.0734 23.1853C14.2375 23.1853 15.4023 23.1846 16.5665 23.186C17.0701 23.1866 17.4088 23.4813 17.4068 23.9125C17.4048 24.3288 17.0755 24.6344 16.5916 24.6357C14.2287 24.6405 11.8658 24.6412 9.50295 24.6357C9.01151 24.6344 8.70265 24.3363 8.70537 23.9044C8.70809 23.4691 9.02101 23.1873 9.51177 23.1866C10.6997 23.1839 11.8862 23.1853 13.0734 23.1853Z" fill="#5F5F5F"/>
</svg>
