<svg width="15" height="18" viewBox="0 0 15 18" fill="none" xmlns="http://www.w3.org/2000/svg">
<path d="M0.196488 7.24271C0.149102 3.76082 2.63751 0.740018 5.92159 0.119299C9.69231 -0.593127 13.3386 1.95726 14.063 5.84715C14.3704 7.49915 14.1207 9.0934 13.5393 10.6427C12.8173 12.5672 11.6722 14.2048 10.2799 15.6678C9.53325 16.452 8.72727 17.161 7.83311 17.7686C7.38232 18.0751 7.00735 18.0773 6.55615 17.7716C5.13497 16.8082 3.9363 15.6046 2.88185 14.2417C1.8991 12.9718 1.11496 11.5852 0.631207 10.0308C0.372024 9.19912 0.178358 8.2052 0.196488 7.24271ZM7.19814 0.858048C7.19566 0.840641 7.19319 0.823233 7.19072 0.805826C6.6979 0.88055 6.19602 0.916638 5.71391 1.03722C3.03844 1.70464 1.04573 4.151 1.00659 7.16161C0.994228 8.12029 1.16688 9.05646 1.47098 9.96589C1.97616 11.4774 2.77802 12.8113 3.76819 14.029C4.68831 15.1613 5.70773 16.1875 6.90434 17.0133C7.19154 17.2111 7.19319 17.2103 7.48493 17.0095C8.5538 16.2729 9.4768 15.3677 10.3244 14.3776C11.3912 13.1319 12.2714 11.7652 12.8305 10.1977C13.2937 8.89937 13.5162 7.56283 13.2941 6.18468C12.772 2.94947 10.0343 0.808798 7.19814 0.858048Z" fill="white"/>
<path d="M10.2289 7.22233C10.2672 8.73888 9.08747 10.362 7.18007 10.3573C5.30109 10.3527 4.13992 8.74907 4.14281 7.20195C4.14569 5.57458 5.47169 4.03085 7.27237 4.0784C8.96303 4.12213 10.2692 5.59114 10.2289 7.22233ZM7.1949 4.9339C6.22245 4.87574 4.9904 5.68666 4.96032 7.20747C4.93519 8.47013 5.96286 9.51117 7.19655 9.5116C8.41459 9.51202 9.44267 8.46674 9.42124 7.21638C9.39528 5.70662 8.17642 4.88041 7.1949 4.9339Z" fill="white"/>
</svg>
