<svg width="13" height="16" viewBox="0 0 13 16" fill="none" xmlns="http://www.w3.org/2000/svg">
<path d="M0.00104511 6.43795C-0.041076 3.34295 2.17083 0.657792 5.09001 0.106043C8.44176 -0.527223 11.6829 1.73978 12.3268 5.19746C12.6 6.66589 12.3781 8.083 11.8613 9.46011C11.2196 11.1708 10.2017 12.6264 8.96406 13.9269C8.30038 14.624 7.58395 15.2542 6.78914 15.7943C6.38844 16.0668 6.05513 16.0686 5.65407 15.7969C4.3908 14.9406 3.32532 13.8707 2.38803 12.6593C1.51448 11.5305 0.817463 10.2979 0.387461 8.91629C0.157076 8.17698 -0.0150708 7.2935 0.00104511 6.43795ZM6.22472 0.762708C6.22252 0.747234 6.22032 0.731761 6.21813 0.716288C5.78007 0.78271 5.33395 0.814788 4.90541 0.921968C2.52721 1.51523 0.755929 3.68977 0.721133 6.36587C0.710145 7.21802 0.863613 8.05017 1.13392 8.85855C1.58297 10.2021 2.29573 11.3878 3.17588 12.4702C3.99376 13.4767 4.89992 14.3889 5.96357 15.1229C6.21886 15.2988 6.22032 15.298 6.47964 15.1195C7.42975 14.4647 8.2502 13.6601 9.00362 12.78C9.95189 11.6728 10.7342 10.4579 11.2313 9.0646C11.643 7.91054 11.8407 6.7225 11.6433 5.49748C11.1793 2.62175 8.74576 0.71893 6.22472 0.762708Z" fill="#5F5F5F"/>
<path d="M8.9187 6.41983C8.95276 7.76788 7.90412 9.21065 6.20866 9.2065C4.53846 9.20235 3.50631 7.77694 3.50888 6.40172C3.51144 4.95517 4.6901 3.58297 6.2907 3.62523C7.79351 3.66411 8.95459 4.96989 8.9187 6.41983ZM6.22184 4.38568C5.35744 4.33398 4.26229 5.0548 4.23556 6.40662C4.21321 7.52899 5.12669 8.45436 6.22331 8.45474C7.306 8.45511 8.21985 7.52597 8.2008 6.41455C8.17773 5.07254 7.0943 4.33813 6.22184 4.38568Z" fill="#5F5F5F"/>
</svg>
