<svg width="18" height="22" viewBox="0 0 18 22" fill="none" xmlns="http://www.w3.org/2000/svg">
<path d="M9.01513 20.2582C10.8802 20.2709 12.7237 20.1044 14.4655 19.3467C14.9395 19.1404 15.394 18.8708 15.8255 18.58C16.2621 18.286 16.3878 17.8328 16.3464 17.2909C16.2002 15.3794 15.4819 13.7477 14.1997 12.3681C13.7247 11.8568 13.9231 11.1277 14.5673 10.9262C14.8428 10.84 15.0831 10.9252 15.2743 11.1139C15.5448 11.3804 15.8081 11.6601 16.0386 11.9626C17.2907 13.6054 17.9364 15.4788 17.9988 17.5695C18.0192 18.258 17.7846 18.8443 17.3582 19.3562C16.646 20.2106 15.7084 20.7045 14.7063 21.0757C12.5167 21.8868 10.2508 22.1031 7.94304 21.9587C6.57341 21.8731 5.21758 21.6938 3.89294 21.3068C2.90061 21.017 1.97679 20.5824 1.16748 19.913C0.333125 19.2224 -0.0774063 18.3452 0.012062 17.2147C0.172594 15.1906 0.834659 13.3812 2.08313 11.8082C2.21809 11.6379 2.34437 11.4486 2.51257 11.3217C2.71247 11.1716 2.94304 11.0235 3.17924 10.9749C3.71758 10.8638 4.17259 11.418 3.99212 11.9547C3.91953 12.1709 3.78251 12.3782 3.63272 12.55C2.4001 13.9655 1.74212 15.6216 1.65112 17.5214C1.62965 17.9666 1.8367 18.2981 2.15675 18.5641C2.72218 19.0347 3.38118 19.3218 4.05859 19.5608C5.39857 20.034 6.78711 20.2207 8.19713 20.2582C8.46963 20.2646 8.74263 20.2582 9.01513 20.2582Z" fill="#5F5F5F"/>
<path d="M8.90706 11.814C5.85338 11.814 3.27976 9.13164 3.27976 5.94852C3.28027 2.65806 5.83446 -0.0010572 8.99346 3.15315e-07C12.1519 0.00105783 14.7281 2.6697 14.7235 5.93636C14.7189 9.19139 12.1233 11.814 8.90706 11.814ZM9.01442 10.1209C11.2184 10.1442 13.0451 8.24121 13.0824 5.88454C13.1172 3.70077 11.2148 1.71635 9.06248 1.69044C6.86974 1.66347 4.94694 3.59132 4.92035 5.84224C4.89223 8.21794 6.68978 10.0966 9.01442 10.1209Z" fill="#5F5F5F"/>
</svg>
