<svg width="211" height="52" viewBox="0 0 211 52" fill="none" xmlns="http://www.w3.org/2000/svg">
<g clip-path="url(#clip0)">
<path d="M63.3733 14.321C63.7183 14.2658 64.0494 14.2382 64.3667 14.2106C64.684 14.183 65.029 14.1692 65.4015 14.1692C65.7326 14.1692 66.0499 14.183 66.3672 14.2106C66.6846 14.2382 67.0295 14.2658 67.402 14.321L72.9759 32.1326C72.2998 32.2292 71.6376 32.2843 70.9892 32.2843C70.3683 32.2843 69.7475 32.2292 69.1542 32.1326L68.1608 28.573H62.2696L61.2486 32.1326C60.6554 32.2292 60.0897 32.2843 59.5378 32.2843C58.9308 32.2843 58.3237 32.2292 57.7305 32.1326L63.3733 14.321ZM67.333 25.5653L65.2773 18.0875L63.125 25.5653H67.333Z" fill="#5F5F5F"/>
<path d="M74.8936 14.0312C75.4868 13.9346 76.0801 13.8794 76.6457 13.8794C77.2114 13.8794 77.7909 13.9346 78.3841 14.0312V27.0277C78.3841 27.5382 78.4117 27.9521 78.4669 28.2694C78.5221 28.5867 78.6187 28.8213 78.7428 29.0006C78.867 29.18 79.0326 29.2904 79.2257 29.3594C79.4189 29.4283 79.6672 29.4559 79.9708 29.4559C80.1087 29.4559 80.2467 29.4421 80.3985 29.4283C80.5502 29.4145 80.702 29.387 80.8538 29.3594C81.0331 30.0354 81.1297 30.6976 81.1297 31.3461C81.1297 31.4841 81.1297 31.5944 81.1297 31.7048C81.1297 31.8152 81.1159 31.9256 81.0745 32.0635C80.8124 32.1463 80.495 32.2015 80.1225 32.2429C79.75 32.2705 79.4051 32.2981 79.1016 32.2981C77.8323 32.2981 76.8113 31.9532 76.0387 31.2495C75.2661 30.5459 74.8936 29.4008 74.8936 27.8141V14.0312Z" fill="#5F5F5F"/>
<path d="M90.1944 29.9942C91.6983 30.0218 92.802 30.3667 93.5194 31.0013C94.2231 31.636 94.5818 32.5466 94.5818 33.7193C94.5818 34.4091 94.4024 35.0438 94.0437 35.6095C93.685 36.1751 93.1883 36.658 92.5537 37.0581C91.9328 37.4582 91.1878 37.7618 90.3186 37.9687C89.4632 38.1895 88.5388 38.286 87.5454 38.286C86.5521 38.286 85.7105 38.2033 85.0206 38.0515C84.3308 37.8997 83.7651 37.679 83.3236 37.3892C82.8821 37.1133 82.5786 36.7684 82.3854 36.3545C82.1923 35.9406 82.0957 35.4853 82.0957 34.9886C82.0957 34.2436 82.2751 33.6365 82.6338 33.1536C82.9925 32.6708 83.4616 32.2569 84.0548 31.8843C83.6685 31.6498 83.3788 31.3739 83.1581 31.0289C82.9373 30.6978 82.8269 30.2563 82.8269 29.732C82.8269 29.1112 82.9649 28.5869 83.227 28.2006C83.4892 27.8005 83.8755 27.428 84.386 27.0555C83.8065 26.6416 83.365 26.1449 83.0477 25.5516C82.7304 24.9584 82.5786 24.2961 82.5786 23.5649C82.5786 22.9164 82.7028 22.3232 82.9511 21.7713C83.1994 21.2194 83.5582 20.7366 84.0273 20.3364C84.4963 19.9363 85.0758 19.619 85.7518 19.3845C86.4279 19.1499 87.1867 19.0396 88.0283 19.0396C88.8561 19.0396 89.6149 19.1637 90.3048 19.4259C90.9946 19.688 91.5741 20.0053 92.0432 20.4054C92.3605 19.9915 92.7468 19.688 93.2021 19.481C93.6712 19.2741 94.292 19.1775 95.0785 19.1775C95.1061 19.3983 95.1336 19.6052 95.1612 19.8122C95.1888 20.0191 95.2026 20.2399 95.2026 20.4744C95.2026 20.7366 95.1888 20.9987 95.175 21.2608C95.1612 21.523 95.1199 21.7989 95.0785 22.0748H93.0779C93.1607 22.2404 93.2297 22.4336 93.2987 22.6681C93.3677 22.9026 93.3953 23.2062 93.3953 23.5787C93.3953 24.2271 93.2711 24.8204 93.0365 25.3723C92.802 25.9241 92.4433 26.3932 91.988 26.7933C91.5189 27.1934 90.967 27.497 90.291 27.7315C89.6287 27.9661 88.8699 28.0764 88.0283 28.0764C87.3247 28.0764 86.6762 28.0074 86.1244 27.8557C85.8484 28.035 85.6691 28.2282 85.6001 28.4351C85.5311 28.6421 85.5035 28.8353 85.5035 29.0146C85.5035 29.2767 85.5863 29.4975 85.7656 29.6631C85.945 29.8286 86.2899 29.9252 86.8142 29.939L90.1944 29.9942ZM87.0211 32.5742C86.6624 32.5604 86.3589 32.6018 86.1106 32.6983C85.876 32.7949 85.6829 32.9191 85.5449 33.0847C85.4069 33.2364 85.3104 33.4158 85.2414 33.6089C85.1862 33.8021 85.1586 33.9814 85.1586 34.1608C85.1586 34.7817 85.3931 35.2094 85.8622 35.4301C86.3313 35.6509 86.966 35.7612 87.7524 35.7612C88.7871 35.7612 89.6287 35.5957 90.2634 35.2645C90.898 34.9334 91.2154 34.4919 91.2154 33.9263C91.2154 33.7607 91.1878 33.6089 91.1602 33.4572C91.1188 33.3054 91.036 33.1674 90.9256 33.0433C90.8153 32.9191 90.6497 32.8225 90.4427 32.7397C90.2358 32.657 89.9599 32.6156 89.6149 32.6156L87.0211 32.5742ZM88.0421 25.8138C88.7319 25.8138 89.2286 25.6206 89.546 25.2205C89.8495 24.8204 90.0013 24.2823 90.0013 23.5925C90.0013 22.9026 89.8495 22.3508 89.546 21.9507C89.2424 21.5506 88.7457 21.3436 88.0421 21.3436C87.3385 21.3436 86.8142 21.5506 86.5107 21.9507C86.1933 22.3508 86.0416 22.9026 86.0416 23.5925C86.0416 24.2823 86.1933 24.8342 86.5107 25.2205C86.8142 25.6206 87.3247 25.8138 88.0421 25.8138Z" fill="#5F5F5F"/>
<path d="M96.9268 14.0312C97.52 13.9346 98.1133 13.8794 98.679 13.8794C99.2446 13.8794 99.8241 13.9346 100.417 14.0312V27.0277C100.417 27.5382 100.445 27.9521 100.5 28.2694C100.555 28.5867 100.652 28.8213 100.776 29.0006C100.9 29.18 101.066 29.2904 101.259 29.3594C101.452 29.4283 101.7 29.4559 102.004 29.4559C102.142 29.4559 102.28 29.4421 102.432 29.4283C102.583 29.4145 102.735 29.387 102.887 29.3594C103.066 30.0354 103.163 30.6976 103.163 31.3461C103.163 31.4841 103.163 31.5944 103.163 31.7048C103.163 31.8152 103.149 31.9256 103.108 32.0635C102.846 32.1463 102.528 32.2015 102.156 32.2429C101.783 32.2705 101.438 32.2981 101.135 32.2981C99.8655 32.2981 98.8445 31.9532 98.0719 31.2495C97.2993 30.5459 96.9268 29.4008 96.9268 27.8141V14.0312Z" fill="#5F5F5F"/>
<path d="M107.853 26.807C107.922 27.8004 108.267 28.5178 108.888 28.9593C109.508 29.4008 110.336 29.6216 111.357 29.6216C111.923 29.6216 112.489 29.5664 113.082 29.456C113.661 29.3456 114.227 29.1939 114.751 29.0007C114.931 29.3318 115.082 29.7319 115.22 30.1872C115.358 30.6563 115.427 31.1392 115.441 31.6773C114.158 32.174 112.696 32.4223 111.081 32.4223C109.895 32.4223 108.874 32.2567 108.018 31.9256C107.163 31.5945 106.473 31.1392 105.935 30.5459C105.397 29.9665 104.997 29.2628 104.749 28.4488C104.486 27.6348 104.362 26.7518 104.362 25.7999C104.362 24.8617 104.5 23.9787 104.762 23.1509C105.025 22.3231 105.425 21.6056 105.935 20.9986C106.459 20.3915 107.094 19.9086 107.867 19.5499C108.639 19.1912 109.536 19.0119 110.557 19.0119C111.454 19.0119 112.24 19.1636 112.93 19.4809C113.62 19.7983 114.213 20.226 114.696 20.764C115.179 21.3021 115.551 21.9506 115.8 22.7094C116.076 23.482 116.2 24.2822 116.2 25.1514C116.2 25.4687 116.186 25.7723 116.159 26.0758C116.131 26.3793 116.103 26.6277 116.076 26.807H107.853ZM112.875 24.3512C112.847 23.5648 112.627 22.9163 112.213 22.4335C111.799 21.9506 111.247 21.7022 110.516 21.7022C109.688 21.7022 109.067 21.9368 108.639 22.3921C108.212 22.8611 107.949 23.5096 107.867 24.3512H112.875ZM110.819 14.321C111.481 14.2244 112.226 14.1692 113.054 14.1692C113.482 14.1692 113.854 14.183 114.158 14.2106C114.462 14.2382 114.779 14.2658 115.11 14.321L111.371 17.37C111.15 17.3976 110.902 17.439 110.598 17.4666C110.295 17.4942 109.991 17.5218 109.66 17.5218C109.136 17.5218 108.598 17.4666 108.046 17.37L110.819 14.321Z" fill="#5F5F5F"/>
<path d="M127.555 29.1113C127.748 29.4424 127.914 29.8287 128.052 30.2564C128.19 30.6979 128.245 31.2084 128.245 31.8017C127.583 32.0638 126.962 32.2294 126.382 32.3122C125.803 32.3811 125.196 32.4225 124.575 32.4225C123.499 32.4225 122.574 32.257 121.774 31.9121C120.988 31.5671 120.326 31.1118 119.801 30.5186C119.277 29.9253 118.891 29.2217 118.629 28.3939C118.366 27.5799 118.229 26.6831 118.229 25.7311C118.229 24.7929 118.353 23.9099 118.615 23.1097C118.877 22.2957 119.263 21.5921 119.774 20.985C120.298 20.378 120.946 19.8951 121.719 19.5502C122.492 19.2052 123.389 19.0259 124.423 19.0259C124.782 19.0259 125.127 19.0397 125.43 19.0535C125.734 19.0673 126.024 19.1087 126.313 19.15C126.589 19.2052 126.879 19.2604 127.155 19.3432C127.431 19.426 127.748 19.5364 128.093 19.6605C128.093 20.0468 128.038 20.4607 127.941 20.9298C127.845 21.3989 127.679 21.8542 127.472 22.2819C126.976 22.1164 126.548 22.006 126.175 21.9508C125.803 21.8956 125.375 21.868 124.906 21.868C123.885 21.868 123.113 22.1991 122.588 22.8752C122.064 23.5374 121.802 24.5032 121.802 25.7311C121.802 27.0694 122.078 28.049 122.643 28.656C123.209 29.2631 123.968 29.5666 124.92 29.5666C125.168 29.5666 125.389 29.5666 125.596 29.5528C125.803 29.539 126.01 29.5252 126.203 29.4838C126.396 29.4562 126.603 29.401 126.81 29.3321C127.031 29.2907 127.279 29.2079 127.555 29.1113Z" fill="#5F5F5F"/>
<path d="M131.419 22.0057H129.763C129.708 21.785 129.68 21.5642 129.653 21.3297C129.625 21.0951 129.611 20.8606 129.611 20.6536C129.611 20.2121 129.667 19.7706 129.763 19.3429H134.868V32.1463C134.275 32.2429 133.695 32.2981 133.129 32.2981C132.591 32.2981 132.012 32.2429 131.419 32.1463V22.0057ZM130.908 17.1769C130.812 16.6112 130.756 16.0593 130.756 15.5212C130.756 14.997 130.812 14.4451 130.908 13.8656C131.184 13.8104 131.488 13.7829 131.805 13.7553C132.122 13.7277 132.426 13.7139 132.688 13.7139C132.964 13.7139 133.267 13.7277 133.599 13.7553C133.93 13.7829 134.233 13.8104 134.509 13.8656C134.564 14.1416 134.592 14.4175 134.606 14.6934C134.62 14.9694 134.633 15.2453 134.633 15.5212C134.633 15.7834 134.62 16.0593 134.606 16.3353C134.592 16.6112 134.551 16.9009 134.509 17.1769C134.233 17.232 133.93 17.2596 133.599 17.2734C133.281 17.2872 132.978 17.301 132.688 17.301C132.426 17.301 132.122 17.2872 131.791 17.2734C131.488 17.2596 131.184 17.2182 130.908 17.1769Z" fill="#5F5F5F"/>
<path d="M143.753 32.4224C142.718 32.4224 141.808 32.2568 141.035 31.9119C140.262 31.567 139.628 31.0979 139.131 30.5047C138.634 29.9114 138.248 29.194 137.986 28.3938C137.724 27.5797 137.6 26.7106 137.6 25.7724C137.6 24.8342 137.724 23.9512 137.986 23.1234C138.248 22.2956 138.621 21.5782 139.131 20.9849C139.642 20.3916 140.276 19.9087 141.035 19.5638C141.808 19.2189 142.704 19.0396 143.753 19.0396C144.802 19.0396 145.698 19.2189 146.471 19.5638C147.244 19.9087 147.892 20.3916 148.402 20.9849C148.913 21.592 149.299 22.2956 149.548 23.1234C149.796 23.9512 149.92 24.8342 149.92 25.7724C149.92 26.7106 149.796 27.5935 149.548 28.3938C149.299 29.2078 148.913 29.9114 148.402 30.5047C147.892 31.1117 147.244 31.5808 146.471 31.9119C145.698 32.2568 144.802 32.4224 143.753 32.4224ZM143.753 29.7458C144.677 29.7458 145.34 29.4009 145.74 28.7249C146.14 28.035 146.347 27.0555 146.347 25.7724C146.347 24.4893 146.14 23.4959 145.74 22.8061C145.34 22.1162 144.677 21.7851 143.753 21.7851C142.842 21.7851 142.194 22.13 141.78 22.8061C141.38 23.4959 141.173 24.4755 141.173 25.7724C141.173 27.0555 141.38 28.0488 141.78 28.7249C142.194 29.4147 142.842 29.7458 143.753 29.7458Z" fill="#5F5F5F"/>
<path d="M161.386 23.8821C160.82 23.6614 160.324 23.4268 159.882 23.1785C159.441 22.9302 159.054 22.6128 158.737 22.2679C158.42 21.9092 158.185 21.4815 158.006 20.9986C157.826 20.5019 157.744 19.9087 157.744 19.2188C157.744 18.3772 157.881 17.6322 158.171 16.9838C158.461 16.3353 158.875 15.7972 159.399 15.3557C159.923 14.9142 160.558 14.5831 161.303 14.3624C162.048 14.1416 162.876 14.0312 163.8 14.0312C164.642 14.0312 165.428 14.1002 166.16 14.252C166.891 14.4038 167.663 14.6107 168.477 14.9004C168.381 15.8524 168.119 16.8044 167.691 17.7288C167.443 17.6322 167.194 17.5356 166.932 17.4253C166.67 17.3287 166.408 17.2459 166.118 17.1769C165.828 17.1079 165.497 17.0527 165.139 17.0114C164.78 16.97 164.366 16.9562 163.897 16.9562C163.621 16.9562 163.331 16.9838 163.041 17.0251C162.752 17.0803 162.49 17.1631 162.255 17.3011C162.021 17.4391 161.841 17.6322 161.689 17.8805C161.538 18.1427 161.469 18.4738 161.469 18.8877C161.469 19.2188 161.524 19.4948 161.648 19.7155C161.758 19.9363 161.924 20.1294 162.117 20.2812C162.31 20.4329 162.531 20.5709 162.779 20.6813C163.028 20.7917 163.276 20.8882 163.524 20.9848L165.014 21.5505C165.635 21.7988 166.215 22.061 166.725 22.3231C167.236 22.5852 167.663 22.9164 168.022 23.3027C168.381 23.689 168.657 24.1581 168.85 24.7099C169.043 25.2618 169.153 25.9379 169.153 26.7519C169.153 27.5935 169.002 28.3661 168.698 29.0559C168.395 29.7458 167.953 30.339 167.374 30.8357C166.794 31.3324 166.077 31.7187 165.235 31.9946C164.38 32.2706 163.4 32.4085 162.296 32.4085C161.745 32.4085 161.262 32.3947 160.834 32.3534C160.406 32.3258 159.992 32.2706 159.606 32.1878C159.22 32.1188 158.833 32.0222 158.461 31.8981C158.075 31.7877 157.688 31.6497 157.274 31.4842C157.33 31.0013 157.412 30.5046 157.55 29.9803C157.688 29.456 157.84 28.9318 158.019 28.4075C158.709 28.6834 159.372 28.9042 159.979 29.0421C160.586 29.1801 161.248 29.2491 161.938 29.2491C162.972 29.2491 163.8 29.0559 164.394 28.6696C164.987 28.2833 165.29 27.69 165.29 26.9036C165.29 26.5035 165.221 26.1724 165.083 25.9103C164.945 25.6481 164.766 25.4274 164.545 25.248C164.325 25.0687 164.076 24.9169 163.786 24.7927C163.511 24.6686 163.221 24.5444 162.917 24.434L161.386 23.8821Z" fill="#5F5F5F"/>
<path d="M172.451 22.0057H170.795C170.74 21.785 170.713 21.5642 170.685 21.3297C170.657 21.0951 170.644 20.8606 170.644 20.6536C170.644 20.2121 170.699 19.7706 170.795 19.3429H175.9V32.1463C175.307 32.2429 174.727 32.2981 174.162 32.2981C173.624 32.2981 173.044 32.2429 172.451 32.1463V22.0057ZM171.94 17.1769C171.844 16.6112 171.789 16.0593 171.789 15.5212C171.789 14.997 171.844 14.4451 171.94 13.8656C172.216 13.8104 172.52 13.7829 172.837 13.7553C173.155 13.7277 173.458 13.7139 173.72 13.7139C173.996 13.7139 174.3 13.7277 174.631 13.7553C174.962 13.7829 175.265 13.8104 175.541 13.8656C175.597 14.1416 175.624 14.4175 175.638 14.6934C175.652 14.9694 175.666 15.2453 175.666 15.5212C175.666 15.7834 175.652 16.0593 175.638 16.3353C175.624 16.6112 175.583 16.9009 175.541 17.1769C175.265 17.232 174.962 17.2596 174.631 17.2734C174.313 17.2872 174.01 17.301 173.72 17.301C173.458 17.301 173.155 17.2872 172.823 17.2734C172.52 17.2596 172.216 17.2182 171.94 17.1769Z" fill="#5F5F5F"/>
<path d="M179.266 14.0312C179.859 13.9346 180.452 13.8794 181.018 13.8794C181.583 13.8794 182.163 13.9346 182.756 14.0312V27.0277C182.756 27.5382 182.784 27.9521 182.839 28.2694C182.894 28.5867 182.991 28.8213 183.115 29.0006C183.239 29.18 183.405 29.2904 183.598 29.3594C183.791 29.4283 184.039 29.4559 184.343 29.4559C184.481 29.4559 184.619 29.4421 184.771 29.4283C184.922 29.4145 185.074 29.387 185.226 29.3594C185.405 30.0354 185.502 30.6976 185.502 31.3461C185.502 31.4841 185.502 31.5944 185.502 31.7048C185.502 31.8152 185.488 31.9256 185.447 32.0635C185.184 32.1463 184.867 32.2015 184.495 32.2429C184.122 32.2705 183.777 32.2981 183.474 32.2981C182.204 32.2981 181.183 31.9532 180.411 31.2495C179.638 30.5459 179.266 29.4008 179.266 27.8141V14.0312Z" fill="#5F5F5F"/>
<path d="M185.405 19.3566C185.805 19.2738 186.164 19.2186 186.509 19.2048C186.84 19.191 187.144 19.1772 187.392 19.1772C187.723 19.1772 188.054 19.191 188.385 19.2048C188.717 19.2186 189.02 19.26 189.296 19.329L192.097 28.8626L194.842 19.329C195.118 19.2738 195.422 19.2462 195.739 19.2186C196.056 19.191 196.36 19.1772 196.677 19.1772C196.926 19.1772 197.215 19.191 197.533 19.2048C197.85 19.2186 198.222 19.2738 198.636 19.3566L193.78 32.1324C193.463 32.1876 193.131 32.2152 192.787 32.229C192.442 32.2428 192.152 32.2566 191.917 32.2566C191.669 32.2566 191.393 32.2428 191.076 32.229C190.758 32.2152 190.469 32.1738 190.179 32.1048L185.405 19.3566Z" fill="#5F5F5F"/>
<path d="M206.873 23.7029C206.873 23.3028 206.804 22.9854 206.68 22.7371C206.542 22.4887 206.362 22.2956 206.128 22.1576C205.893 22.0197 205.617 21.9231 205.272 21.8679C204.927 21.8127 204.555 21.7989 204.141 21.7989C203.244 21.7989 202.306 21.9783 201.299 22.3232C201.064 21.8955 200.899 21.4954 200.775 21.1091C200.664 20.7228 200.595 20.2813 200.595 19.7432C201.327 19.4949 202.044 19.3155 202.775 19.1913C203.506 19.0809 204.182 19.012 204.803 19.012C206.514 19.012 207.866 19.4259 208.832 20.2537C209.798 21.0815 210.281 22.406 210.281 24.2133V31.636C209.701 31.8154 208.998 31.9947 208.17 32.1603C207.342 32.3258 206.418 32.4086 205.369 32.4086C204.527 32.4086 203.755 32.3396 203.051 32.1879C202.347 32.0361 201.74 31.7878 201.244 31.4428C200.747 31.0979 200.347 30.6564 200.085 30.1046C199.809 29.5665 199.671 28.8904 199.671 28.104C199.671 27.3176 199.836 26.6416 200.181 26.1035C200.526 25.5654 200.954 25.1377 201.492 24.8204C202.03 24.5031 202.623 24.2685 203.286 24.1306C203.948 23.9926 204.61 23.9236 205.272 23.9236C205.755 23.9236 206.28 23.9512 206.859 23.9926V23.7029H206.873ZM206.873 26.2553C206.68 26.2277 206.459 26.2001 206.224 26.1725C205.99 26.1449 205.783 26.1311 205.604 26.1311C204.79 26.1311 204.155 26.2691 203.686 26.5588C203.217 26.8485 202.982 27.3176 202.982 27.9523C202.982 28.38 203.079 28.7111 203.258 28.9456C203.437 29.1802 203.658 29.3457 203.92 29.4561C204.182 29.5665 204.445 29.6355 204.734 29.6493C205.024 29.6769 205.272 29.6907 205.493 29.6907C205.741 29.6907 205.99 29.6769 206.238 29.6355C206.486 29.5941 206.707 29.5527 206.887 29.5251V26.2553H206.873Z" fill="#5F5F5F"/>
<path d="M39.4227 7.38139C35.6148 5.02214 31.9863 5.22909 28.4129 7.51935C24.3015 10.1683 24.5774 14.3625 24.8119 18.6809C29.627 18.6809 34.4421 18.6809 39.2434 18.6809C39.2434 23.2063 39.6849 27.6074 39.1468 31.8706C38.3052 38.4793 32.8555 42.7563 25.8191 43.0598C19.4174 43.3358 14.0919 40.466 11.8016 35.5268C10.6289 32.9882 10.215 30.2702 10.1736 27.5109C10.1184 23.4822 10.1322 19.4398 10.1322 15.4111C10.1184 9.82341 7.55219 6.84331 2.01969 6.0293C1.79894 5.98791 1.5644 5.96032 1.24707 5.91893C1.24707 4.02877 1.24707 1.87648 1.24707 0.0415091C6.58642 -0.427581 12.5604 3.10439 14.492 8.1954C15.3198 10.3753 15.7613 12.8035 15.8854 15.1352C16.12 19.6605 15.9682 24.2134 16.0372 28.7526C16.1062 33.1399 18.8655 36.327 23.1425 37.0582C27.5299 37.817 31.7655 35.7199 32.9934 31.7327C33.6695 29.5252 33.5315 27.0694 33.7798 24.5446C28.6474 24.5446 23.722 24.5446 18.9207 24.5446C18.9069 24.241 18.8931 24.0755 18.8931 23.9099C18.8931 20.1986 18.7828 16.4735 18.9483 12.7759C19.2518 5.68439 24.9913 0.372631 32.5795 0.193273C36.0011 0.193273 36.622 0.455412 38.5397 0.952095C38.857 1.03488 39.3813 1.20044 39.3813 1.7937C39.3813 3.75284 39.4227 5.1877 39.4227 7.38139Z" fill="url(#paint0_linear)"/>
<path d="M7.15276 24.5447H2.07556C1.10978 24.5447 0.30957 23.7445 0.30957 22.765V20.5851C0.30957 19.6055 1.10978 18.8191 2.07556 18.8191H7.15276V24.5447Z" fill="url(#paint1_linear)"/>
<path d="M30.1519 52.0001H17.9279C16.4241 52.0001 15.21 50.786 15.21 49.2822C15.21 47.7783 16.4241 46.5642 17.9279 46.5642H30.1519C31.6557 46.5642 32.8698 47.7783 32.8698 49.2822C32.8698 50.786 31.6557 52.0001 30.1519 52.0001Z" fill="url(#paint2_linear)"/>
<path d="M100.128 36.5062C100.169 36.5062 100.225 36.4924 100.293 36.4924C100.362 36.4924 100.418 36.4924 100.459 36.4924C100.487 36.4924 100.542 36.4924 100.611 36.4924C100.68 36.4924 100.735 36.5062 100.776 36.5062V42.5216C100.776 42.6872 100.79 42.8251 100.832 42.9217C100.873 43.0183 100.914 43.0873 100.983 43.1287C101.039 43.1701 101.108 43.1977 101.176 43.2115C101.245 43.2253 101.314 43.2253 101.37 43.2253C101.439 43.2253 101.521 43.2253 101.59 43.2115C101.673 43.1977 101.728 43.1839 101.784 43.1839C101.811 43.2666 101.839 43.3494 101.853 43.4322C101.866 43.5288 101.88 43.6116 101.88 43.6805C101.784 43.7081 101.687 43.7357 101.577 43.7495C101.466 43.7633 101.356 43.7633 101.259 43.7633C101.121 43.7633 100.983 43.7495 100.845 43.7219C100.707 43.6943 100.583 43.6392 100.487 43.5564C100.376 43.4736 100.293 43.3632 100.225 43.2253C100.156 43.0873 100.128 42.9079 100.128 42.6734V36.5062Z" fill="#838383" stroke="#838383" stroke-width="0.344919" stroke-miterlimit="10"/>
<path d="M103.743 41.2797C103.743 41.942 103.895 42.4249 104.199 42.7422C104.502 43.0595 104.957 43.2113 105.578 43.2113C105.827 43.2113 106.047 43.1837 106.268 43.1423C106.475 43.1009 106.682 43.0457 106.889 42.9767C106.917 43.0457 106.944 43.1423 106.972 43.2389C106.986 43.3354 106.999 43.432 107.013 43.5148C106.82 43.5976 106.599 43.6666 106.351 43.708C106.103 43.7494 105.827 43.7769 105.523 43.7769C105.095 43.7769 104.723 43.708 104.419 43.5838C104.116 43.4596 103.854 43.2803 103.661 43.0457C103.467 42.825 103.316 42.549 103.219 42.2317C103.122 41.9144 103.081 41.5695 103.081 41.1969C103.081 40.8382 103.122 40.4933 103.219 40.176C103.302 39.8587 103.44 39.5827 103.619 39.3344C103.798 39.0998 104.033 38.9067 104.309 38.7687C104.585 38.6308 104.916 38.5618 105.316 38.5618C105.647 38.5618 105.923 38.617 106.185 38.7273C106.434 38.8377 106.654 38.9895 106.82 39.1826C106.986 39.3758 107.124 39.6241 107.206 39.9001C107.289 40.176 107.344 40.4795 107.344 40.7968C107.344 40.852 107.344 40.9348 107.344 41.0176C107.344 41.1142 107.33 41.1832 107.33 41.2521H103.743V41.2797ZM106.668 40.7417C106.668 40.5347 106.641 40.3415 106.585 40.1484C106.53 39.9552 106.447 39.7897 106.337 39.6379C106.227 39.4861 106.089 39.3758 105.909 39.2792C105.73 39.1826 105.523 39.1412 105.275 39.1412C104.819 39.1412 104.461 39.2792 104.212 39.5551C103.964 39.8311 103.812 40.2312 103.757 40.7279H106.668V40.7417Z" fill="#838383" stroke="#838383" stroke-width="0.344919" stroke-miterlimit="10"/>
<path d="M109.512 39.2381H108.891C108.877 39.2105 108.877 39.1691 108.877 39.1277C108.877 39.0863 108.877 39.0311 108.877 38.9759C108.877 38.9208 108.877 38.8794 108.877 38.8242C108.877 38.769 108.891 38.7276 108.891 38.7H110.16V43.6668C110.119 43.6806 110.063 43.6806 109.994 43.6806C109.926 43.6806 109.87 43.6806 109.829 43.6806C109.801 43.6806 109.746 43.6806 109.677 43.6806C109.608 43.6806 109.553 43.6668 109.512 43.6668V39.2381ZM109.194 37.4721C109.18 37.4169 109.18 37.3479 109.18 37.2651C109.18 37.1824 109.18 37.1134 109.18 37.0444C109.18 36.9892 109.18 36.934 109.18 36.8512C109.18 36.7685 109.194 36.7133 109.194 36.6581C109.249 36.6443 109.318 36.6443 109.415 36.6443C109.498 36.6443 109.567 36.6443 109.636 36.6443C109.691 36.6443 109.746 36.6443 109.829 36.6443C109.912 36.6443 109.967 36.6581 110.022 36.6581C110.036 36.7133 110.036 36.7685 110.036 36.8512C110.036 36.934 110.036 36.9892 110.036 37.0444C110.036 37.0996 110.036 37.1686 110.036 37.2651C110.036 37.3479 110.022 37.4169 110.022 37.4721C109.967 37.4859 109.912 37.4859 109.829 37.4859C109.746 37.4859 109.691 37.4859 109.636 37.4859C109.581 37.4859 109.512 37.4859 109.415 37.4859C109.318 37.4859 109.249 37.4859 109.194 37.4721Z" fill="#838383" stroke="#838383" stroke-width="0.344919" stroke-miterlimit="10"/>
<path d="M112.354 36.5062C112.395 36.5062 112.45 36.4924 112.519 36.4924C112.588 36.4924 112.643 36.4924 112.685 36.4924C112.712 36.4924 112.767 36.4924 112.836 36.4924C112.905 36.4924 112.961 36.5062 113.002 36.5062V42.5216C113.002 42.6872 113.016 42.8251 113.057 42.9217C113.099 43.0183 113.14 43.0873 113.209 43.1287C113.264 43.1701 113.333 43.1977 113.402 43.2115C113.471 43.2253 113.54 43.2253 113.595 43.2253C113.664 43.2253 113.747 43.2253 113.816 43.2115C113.899 43.1977 113.954 43.1839 114.009 43.1839C114.037 43.2666 114.064 43.3494 114.078 43.4322C114.092 43.5288 114.106 43.6116 114.106 43.6805C114.009 43.7081 113.913 43.7357 113.802 43.7495C113.692 43.7633 113.581 43.7633 113.485 43.7633C113.347 43.7633 113.209 43.7495 113.071 43.7219C112.933 43.6943 112.809 43.6392 112.712 43.5564C112.602 43.4736 112.519 43.3632 112.45 43.2253C112.381 43.0873 112.354 42.9079 112.354 42.6734V36.5062Z" fill="#838383" stroke="#838383" stroke-width="0.344919" stroke-miterlimit="10"/>
<path d="M117.499 43.7769C117.126 43.7769 116.809 43.708 116.519 43.5838C116.243 43.4458 116.009 43.2665 115.829 43.0319C115.65 42.7974 115.512 42.5214 115.415 42.2041C115.319 41.8868 115.277 41.5419 115.277 41.1831C115.277 40.8244 115.319 40.4795 115.415 40.1622C115.512 39.8449 115.65 39.5689 115.829 39.3344C116.009 39.0998 116.243 38.9205 116.519 38.7825C116.795 38.6445 117.126 38.5894 117.499 38.5894C117.871 38.5894 118.188 38.6583 118.464 38.7825C118.74 38.9205 118.975 39.0998 119.154 39.3344C119.334 39.5689 119.485 39.8449 119.568 40.1622C119.665 40.4795 119.706 40.8244 119.706 41.1831C119.706 41.5419 119.665 41.8868 119.568 42.2041C119.472 42.5214 119.334 42.7974 119.154 43.0319C118.975 43.2665 118.74 43.4458 118.464 43.5838C118.188 43.708 117.871 43.7769 117.499 43.7769ZM117.499 43.2113C118.023 43.2113 118.409 43.0319 118.658 42.6594C118.92 42.3007 119.044 41.804 119.044 41.1694C119.044 40.5347 118.92 40.038 118.658 39.6793C118.395 39.3206 118.009 39.1274 117.499 39.1274C116.974 39.1274 116.588 39.3068 116.34 39.6793C116.078 40.038 115.953 40.5347 115.953 41.1694C115.953 41.804 116.078 42.3007 116.34 42.6594C116.588 43.0319 116.974 43.2113 117.499 43.2113Z" fill="#838383" stroke="#838383" stroke-width="0.344919" stroke-miterlimit="10"/>
<path d="M122.052 41.2797C122.052 41.942 122.204 42.4249 122.507 42.7422C122.811 43.0595 123.266 43.2113 123.887 43.2113C124.135 43.2113 124.356 43.1837 124.577 43.1423C124.784 43.1009 124.991 43.0457 125.198 42.9767C125.225 43.0457 125.253 43.1423 125.28 43.2389C125.294 43.3354 125.308 43.432 125.322 43.5148C125.129 43.5976 124.908 43.6666 124.659 43.708C124.411 43.7494 124.135 43.7769 123.832 43.7769C123.404 43.7769 123.031 43.708 122.728 43.5838C122.424 43.4596 122.162 43.2803 121.969 43.0457C121.776 42.825 121.624 42.549 121.528 42.2317C121.431 41.9144 121.39 41.5695 121.39 41.1969C121.39 40.8382 121.431 40.4933 121.528 40.176C121.61 39.8587 121.748 39.5827 121.928 39.3344C122.107 39.0998 122.342 38.9067 122.618 38.7687C122.893 38.6308 123.225 38.5618 123.625 38.5618C123.956 38.5618 124.232 38.617 124.494 38.7273C124.756 38.8377 124.963 38.9895 125.129 39.1826C125.294 39.3758 125.432 39.6241 125.515 39.9001C125.598 40.176 125.653 40.4795 125.653 40.7968C125.653 40.852 125.653 40.9348 125.653 41.0176C125.653 41.1142 125.639 41.1832 125.639 41.2521H122.052V41.2797ZM124.963 40.7417C124.963 40.5347 124.935 40.3415 124.88 40.1484C124.825 39.9552 124.742 39.7897 124.632 39.6379C124.522 39.4861 124.384 39.3758 124.204 39.2792C124.025 39.1826 123.818 39.1412 123.57 39.1412C123.114 39.1412 122.756 39.2792 122.507 39.5551C122.259 39.8311 122.107 40.2312 122.052 40.7279H124.963V40.7417Z" fill="#838383" stroke="#838383" stroke-width="0.344919" stroke-miterlimit="10"/>
<path d="M127.819 39.2381H127.198C127.185 39.2105 127.185 39.1691 127.185 39.1277C127.185 39.0863 127.185 39.0311 127.185 38.9759C127.185 38.9208 127.185 38.8794 127.185 38.8242C127.185 38.769 127.198 38.7276 127.198 38.7H128.468V43.6668C128.426 43.6806 128.371 43.6806 128.302 43.6806C128.233 43.6806 128.178 43.6806 128.137 43.6806C128.109 43.6806 128.054 43.6806 127.985 43.6806C127.916 43.6806 127.861 43.6668 127.819 43.6668V39.2381ZM127.488 37.4721C127.474 37.4169 127.474 37.3479 127.474 37.2651C127.474 37.1824 127.474 37.1134 127.474 37.0444C127.474 36.9892 127.474 36.934 127.474 36.8512C127.474 36.7685 127.488 36.7133 127.488 36.6581C127.543 36.6443 127.612 36.6443 127.709 36.6443C127.792 36.6443 127.861 36.6443 127.93 36.6443C127.985 36.6443 128.04 36.6443 128.123 36.6443C128.206 36.6443 128.261 36.6581 128.316 36.6581C128.33 36.7133 128.33 36.7685 128.33 36.8512C128.33 36.934 128.33 36.9892 128.33 37.0444C128.33 37.0996 128.33 37.1686 128.33 37.2651C128.33 37.3479 128.316 37.4169 128.316 37.4721C128.261 37.4859 128.206 37.4859 128.123 37.4859C128.04 37.4859 127.985 37.4859 127.93 37.4859C127.874 37.4859 127.805 37.4859 127.709 37.4859C127.626 37.4859 127.543 37.4859 127.488 37.4721Z" fill="#838383" stroke="#838383" stroke-width="0.344919" stroke-miterlimit="10"/>
<path d="M130.662 38.7001C130.717 38.6863 130.759 38.6863 130.814 38.6863C130.869 38.6863 130.91 38.6863 130.952 38.6863C131.007 38.6863 131.048 38.6863 131.104 38.6863C131.145 38.6863 131.2 38.7001 131.255 38.7001C131.269 38.8104 131.283 38.9622 131.283 39.114C131.283 39.2795 131.297 39.4175 131.297 39.5417C131.421 39.3071 131.614 39.1002 131.849 38.9346C132.083 38.7691 132.387 38.6863 132.773 38.6863C132.801 38.6863 132.842 38.6863 132.87 38.6863C132.897 38.6863 132.952 38.6863 132.994 38.7001C133.008 38.8104 133.021 38.907 133.021 39.0174C133.021 39.1278 133.008 39.2244 132.994 39.3209C132.939 39.3071 132.897 39.3071 132.87 39.3071C132.842 39.3071 132.814 39.3071 132.773 39.3071C132.332 39.3071 131.973 39.4451 131.711 39.721C131.449 39.997 131.311 40.4661 131.311 41.1145V43.6669C131.269 43.6807 131.214 43.6807 131.145 43.6807C131.076 43.6807 131.021 43.6807 130.979 43.6807C130.952 43.6807 130.897 43.6807 130.828 43.6807C130.759 43.6807 130.703 43.6669 130.662 43.6669V38.7001Z" fill="#838383" stroke="#838383" stroke-width="0.344919" stroke-miterlimit="10"/>
<path d="M136.497 43.7769C136.124 43.7769 135.807 43.708 135.517 43.5838C135.241 43.4458 135.007 43.2665 134.827 43.0319C134.648 42.7974 134.51 42.5214 134.413 42.2041C134.317 41.8868 134.275 41.5419 134.275 41.1831C134.275 40.8244 134.317 40.4795 134.413 40.1622C134.51 39.8449 134.648 39.5689 134.827 39.3344C135.007 39.0998 135.241 38.9205 135.517 38.7825C135.793 38.6445 136.124 38.5894 136.497 38.5894C136.869 38.5894 137.187 38.6583 137.462 38.7825C137.738 38.9205 137.973 39.0998 138.152 39.3344C138.332 39.5689 138.483 39.8449 138.566 40.1622C138.663 40.4795 138.704 40.8244 138.704 41.1831C138.704 41.5419 138.663 41.8868 138.566 42.2041C138.47 42.5214 138.332 42.7974 138.152 43.0319C137.973 43.2665 137.738 43.4458 137.462 43.5838C137.187 43.708 136.855 43.7769 136.497 43.7769ZM136.497 43.2113C137.021 43.2113 137.407 43.0319 137.656 42.6594C137.918 42.3007 138.042 41.804 138.042 41.1694C138.042 40.5347 137.918 40.038 137.656 39.6793C137.393 39.3206 137.007 39.1274 136.497 39.1274C135.972 39.1274 135.586 39.3068 135.338 39.6793C135.076 40.038 134.951 40.5347 134.951 41.1694C134.951 41.804 135.076 42.3007 135.338 42.6594C135.586 43.0319 135.972 43.2113 136.497 43.2113Z" fill="#838383" stroke="#838383" stroke-width="0.344919" stroke-miterlimit="10"/>
<path d="M143.549 38.6999C143.59 38.6861 143.632 38.6861 143.701 38.6861C143.756 38.6861 143.811 38.6861 143.852 38.6861C143.894 38.6861 143.935 38.6861 144.004 38.6861C144.059 38.6861 144.114 38.6999 144.156 38.6999L144.211 39.3759C144.349 39.1689 144.542 38.9896 144.804 38.824C145.066 38.6585 145.398 38.5757 145.798 38.5757C146.101 38.5757 146.377 38.6171 146.639 38.7137C146.888 38.8102 147.108 38.962 147.288 39.1551C147.467 39.3621 147.605 39.6104 147.702 39.914C147.798 40.2175 147.853 40.59 147.853 41.0177C147.853 41.4454 147.798 41.8317 147.674 42.1766C147.564 42.5216 147.384 42.8113 147.164 43.0458C146.943 43.2804 146.667 43.4597 146.336 43.5977C146.005 43.7219 145.632 43.7909 145.204 43.7909C145.053 43.7909 144.873 43.7771 144.694 43.7495C144.515 43.7219 144.349 43.6805 144.197 43.6391V45.9707C144.156 45.9845 144.101 45.9845 144.032 45.9845C143.963 45.9845 143.908 45.9845 143.88 45.9845C143.839 45.9845 143.783 45.9845 143.714 45.9845C143.645 45.9845 143.59 45.9707 143.549 45.9707V38.6999ZM144.197 43.032C144.349 43.0872 144.501 43.1286 144.666 43.17C144.832 43.1976 145.039 43.2114 145.301 43.2114C145.549 43.2114 145.798 43.17 146.018 43.0872C146.239 43.0044 146.446 42.8803 146.612 42.7009C146.777 42.5216 146.915 42.3008 147.012 42.0387C147.108 41.7627 147.164 41.4454 147.164 41.0729C147.164 40.4796 147.053 40.0105 146.832 39.6656C146.612 39.3207 146.253 39.1551 145.743 39.1551C145.591 39.1551 145.411 39.1827 145.232 39.2379C145.053 39.2931 144.887 39.3759 144.735 39.5001C144.584 39.6242 144.459 39.7898 144.349 39.9968C144.252 40.2037 144.197 40.452 144.197 40.7694V43.032Z" fill="#838383" stroke="#838383" stroke-width="0.344919" stroke-miterlimit="10"/>
<path d="M149.741 38.6999C149.783 38.6861 149.838 38.6861 149.907 38.6861C149.976 38.6861 150.031 38.6861 150.059 38.6861C150.1 38.6861 150.155 38.6861 150.224 38.6861C150.293 38.6861 150.348 38.6999 150.39 38.6999V41.5006C150.39 41.8456 150.431 42.1353 150.5 42.356C150.569 42.5768 150.679 42.7561 150.817 42.8803C150.955 43.0045 151.121 43.1011 151.328 43.1424C151.535 43.1838 151.756 43.2114 152.004 43.2114C152.225 43.2114 152.404 43.1976 152.583 43.17C152.749 43.1424 152.901 43.1149 153.025 43.0735V38.6861C153.066 38.6723 153.121 38.6723 153.19 38.6723C153.259 38.6723 153.315 38.6723 153.342 38.6723C153.384 38.6723 153.439 38.6723 153.508 38.6723C153.577 38.6723 153.632 38.6861 153.673 38.6861V43.5288C153.439 43.5977 153.163 43.6529 152.873 43.6943C152.583 43.7495 152.28 43.7633 151.962 43.7633C151.659 43.7633 151.369 43.7357 151.107 43.6805C150.831 43.6253 150.61 43.515 150.403 43.3494C150.21 43.1838 150.045 42.9493 149.934 42.6596C149.824 42.3698 149.755 41.9835 149.755 41.5144V38.6999H149.741ZM151.852 37.8859C151.742 37.8997 151.604 37.9135 151.452 37.9135C151.355 37.9135 151.245 37.8997 151.135 37.8859L152.28 36.6166C152.349 36.6028 152.418 36.6028 152.501 36.6028C152.583 36.6028 152.652 36.6028 152.721 36.6028C152.804 36.6028 152.873 36.6028 152.956 36.6028C153.039 36.6028 153.108 36.6166 153.177 36.6166L151.852 37.8859Z" fill="#838383" stroke="#838383" stroke-width="0.344919" stroke-miterlimit="10"/>
<path d="M155.867 36.5062C155.909 36.5062 155.964 36.4924 156.033 36.4924C156.102 36.4924 156.157 36.4924 156.198 36.4924C156.226 36.4924 156.281 36.4924 156.35 36.4924C156.419 36.4924 156.474 36.5062 156.516 36.5062V39.3897C156.654 39.1828 156.847 38.9896 157.109 38.8241C157.371 38.6585 157.702 38.5757 158.102 38.5757C158.406 38.5757 158.682 38.6171 158.944 38.7137C159.192 38.8103 159.413 38.9621 159.592 39.1552C159.772 39.3622 159.91 39.6105 160.006 39.914C160.103 40.2176 160.158 40.5901 160.158 41.0178C160.158 41.887 159.923 42.563 159.441 43.0459C158.971 43.5288 158.282 43.7771 157.385 43.7771C157.095 43.7771 156.805 43.7495 156.543 43.6943C156.267 43.6392 156.047 43.584 155.867 43.515V36.5062ZM156.502 43.0735C156.654 43.1287 156.805 43.1563 156.971 43.1839C157.136 43.2115 157.316 43.2253 157.495 43.2253C157.757 43.2253 158.006 43.1839 158.24 43.1011C158.475 43.0183 158.682 42.8941 158.861 42.7148C159.04 42.5354 159.178 42.3147 159.289 42.0525C159.399 41.7766 159.454 41.4593 159.454 41.0868C159.454 40.4935 159.344 40.0382 159.123 39.6933C158.902 39.3484 158.544 39.1828 158.033 39.1828C157.882 39.1828 157.702 39.2104 157.523 39.2656C157.343 39.3208 157.178 39.4035 157.026 39.5277C156.874 39.6519 156.75 39.8175 156.64 40.0244C156.543 40.2314 156.488 40.4797 156.488 40.797V43.0735H156.502Z" fill="#838383" stroke="#838383" stroke-width="0.344919" stroke-miterlimit="10"/>
<path d="M162.09 36.5062C162.131 36.5062 162.186 36.4924 162.255 36.4924C162.324 36.4924 162.38 36.4924 162.421 36.4924C162.449 36.4924 162.504 36.4924 162.573 36.4924C162.642 36.4924 162.697 36.5062 162.738 36.5062V42.5216C162.738 42.6872 162.752 42.8251 162.793 42.9217C162.835 43.0183 162.876 43.0873 162.945 43.1287C163 43.1701 163.069 43.1977 163.138 43.2115C163.207 43.2253 163.276 43.2253 163.332 43.2253C163.401 43.2253 163.483 43.2253 163.552 43.2115C163.635 43.1977 163.69 43.1839 163.745 43.1839C163.773 43.2666 163.801 43.3494 163.814 43.4322C163.828 43.5288 163.842 43.6116 163.842 43.6805C163.745 43.7081 163.649 43.7357 163.538 43.7495C163.428 43.7633 163.318 43.7633 163.221 43.7633C163.083 43.7633 162.945 43.7495 162.807 43.7219C162.669 43.6943 162.545 43.6392 162.449 43.5564C162.338 43.4736 162.255 43.3632 162.186 43.2253C162.117 43.0873 162.09 42.9079 162.09 42.6734V36.5062Z" fill="#838383" stroke="#838383" stroke-width="0.344919" stroke-miterlimit="10"/>
<path d="M165.595 39.2381H164.974C164.96 39.2105 164.96 39.1691 164.96 39.1277C164.96 39.0863 164.96 39.0311 164.96 38.9759C164.96 38.9208 164.96 38.8794 164.96 38.8242C164.96 38.769 164.974 38.7276 164.974 38.7H166.243V43.6668C166.202 43.6806 166.146 43.6806 166.078 43.6806C166.009 43.6806 165.953 43.6806 165.912 43.6806C165.884 43.6806 165.829 43.6806 165.76 43.6806C165.691 43.6806 165.636 43.6668 165.595 43.6668V39.2381ZM165.277 37.4721C165.263 37.4169 165.263 37.3479 165.263 37.2651C165.263 37.1824 165.263 37.1134 165.263 37.0444C165.263 36.9892 165.263 36.934 165.263 36.8512C165.263 36.7685 165.277 36.7133 165.277 36.6581C165.332 36.6443 165.401 36.6443 165.498 36.6443C165.581 36.6443 165.65 36.6443 165.719 36.6443C165.774 36.6443 165.829 36.6443 165.912 36.6443C165.995 36.6443 166.05 36.6581 166.105 36.6581C166.119 36.7133 166.119 36.7685 166.119 36.8512C166.119 36.934 166.119 36.9892 166.119 37.0444C166.119 37.0996 166.119 37.1686 166.119 37.2651C166.119 37.3479 166.105 37.4169 166.105 37.4721C166.05 37.4859 165.995 37.4859 165.912 37.4859C165.829 37.4859 165.774 37.4859 165.719 37.4859C165.664 37.4859 165.595 37.4859 165.498 37.4859C165.415 37.4859 165.332 37.4859 165.277 37.4721Z" fill="#838383" stroke="#838383" stroke-width="0.344919" stroke-miterlimit="10"/>
<path d="M171.733 43.0457C171.761 43.1147 171.802 43.1975 171.83 43.3078C171.858 43.4182 171.885 43.5148 171.899 43.5838C171.733 43.639 171.554 43.6942 171.347 43.7356C171.14 43.7769 170.906 43.7907 170.657 43.7907C169.843 43.7907 169.222 43.57 168.808 43.1285C168.381 42.687 168.174 42.0385 168.174 41.1969C168.174 40.8244 168.229 40.4795 168.326 40.1622C168.436 39.8449 168.588 39.5689 168.781 39.3344C168.988 39.0998 169.236 38.9205 169.54 38.7825C169.843 38.6445 170.188 38.5894 170.588 38.5894C170.837 38.5894 171.071 38.6032 171.292 38.6445C171.513 38.6859 171.692 38.7273 171.816 38.7687C171.816 38.8515 171.802 38.9481 171.789 39.0584C171.761 39.1688 171.747 39.2516 171.72 39.3206C171.595 39.2792 171.43 39.2378 171.223 39.2102C171.03 39.1826 170.809 39.155 170.588 39.155C170.299 39.155 170.036 39.2102 169.829 39.3068C169.609 39.4034 169.429 39.5551 169.278 39.7345C169.126 39.9138 169.029 40.1346 168.946 40.3829C168.877 40.6313 168.836 40.9072 168.836 41.1969C168.836 41.9006 169.002 42.4111 169.333 42.7422C169.664 43.0733 170.119 43.2389 170.685 43.2389C170.878 43.2389 171.071 43.2251 171.251 43.1837C171.43 43.1423 171.595 43.0871 171.733 43.0457Z" fill="#838383" stroke="#838383" stroke-width="0.344919" stroke-miterlimit="10"/>
<path d="M175.543 43.7769C175.17 43.7769 174.853 43.708 174.563 43.5838C174.287 43.4458 174.053 43.2665 173.873 43.0319C173.694 42.7974 173.556 42.5214 173.459 42.2041C173.363 41.8868 173.321 41.5419 173.321 41.1831C173.321 40.8244 173.363 40.4795 173.459 40.1622C173.556 39.8449 173.694 39.5689 173.873 39.3344C174.053 39.0998 174.287 38.9205 174.563 38.7825C174.839 38.6445 175.17 38.5894 175.543 38.5894C175.915 38.5894 176.232 38.6583 176.508 38.7825C176.784 38.9205 177.019 39.0998 177.198 39.3344C177.378 39.5689 177.529 39.8449 177.612 40.1622C177.709 40.4795 177.75 40.8244 177.75 41.1831C177.75 41.5419 177.709 41.8868 177.612 42.2041C177.515 42.5214 177.378 42.7974 177.198 43.0319C177.019 43.2665 176.784 43.4458 176.508 43.5838C176.232 43.708 175.915 43.7769 175.543 43.7769ZM175.543 43.2113C176.067 43.2113 176.453 43.0319 176.701 42.6594C176.964 42.3007 177.088 41.804 177.088 41.1694C177.088 40.5347 176.964 40.038 176.701 39.6793C176.439 39.3206 176.053 39.1274 175.543 39.1274C175.018 39.1274 174.632 39.3068 174.384 39.6793C174.121 40.038 173.997 40.5347 173.997 41.1694C173.997 41.804 174.121 42.3007 174.384 42.6594C174.632 43.0319 175.018 43.2113 175.543 43.2113Z" fill="#838383" stroke="#838383" stroke-width="0.344919" stroke-miterlimit="10"/>
<path d="M184.539 43.7769C184.166 43.7769 183.849 43.708 183.559 43.5838C183.283 43.4458 183.049 43.2665 182.869 43.0319C182.69 42.7974 182.552 42.5214 182.455 42.2041C182.359 41.8868 182.317 41.5419 182.317 41.1831C182.317 40.8244 182.359 40.4795 182.455 40.1622C182.552 39.8449 182.69 39.5689 182.869 39.3344C183.049 39.0998 183.283 38.9205 183.559 38.7825C183.835 38.6445 184.166 38.5894 184.539 38.5894C184.911 38.5894 185.228 38.6583 185.504 38.7825C185.78 38.9205 186.015 39.0998 186.194 39.3344C186.374 39.5689 186.525 39.8449 186.608 40.1622C186.705 40.4795 186.746 40.8244 186.746 41.1831C186.746 41.5419 186.705 41.8868 186.608 42.2041C186.512 42.5214 186.374 42.7974 186.194 43.0319C186.015 43.2665 185.78 43.4458 185.504 43.5838C185.242 43.708 184.911 43.7769 184.539 43.7769ZM184.539 43.2113C185.063 43.2113 185.449 43.0319 185.698 42.6594C185.96 42.3007 186.084 41.804 186.084 41.1694C186.084 40.5347 185.96 40.038 185.698 39.6793C185.435 39.3206 185.049 39.1274 184.539 39.1274C184.014 39.1274 183.628 39.3068 183.38 39.6793C183.118 40.038 182.993 40.5347 182.993 41.1694C182.993 41.804 183.118 42.3007 183.38 42.6594C183.642 43.0319 184.028 43.2113 184.539 43.2113Z" fill="#838383" stroke="#838383" stroke-width="0.344919" stroke-miterlimit="10"/>
<path d="M189.035 39.2379H188.193C188.18 39.2103 188.18 39.1689 188.18 39.1275C188.18 39.0861 188.18 39.0309 188.18 38.9757C188.18 38.9206 188.18 38.8792 188.18 38.824C188.18 38.7688 188.193 38.7274 188.193 38.6998H189.035V38.2583C189.035 37.6513 189.201 37.196 189.518 36.8786C189.835 36.5751 190.318 36.4233 190.939 36.4233C191.036 36.4233 191.132 36.4233 191.229 36.4371C191.312 36.4509 191.408 36.4509 191.505 36.4647C191.601 36.4785 191.698 36.4923 191.808 36.5199C191.919 36.5475 192.029 36.5751 192.167 36.6303C192.167 36.7269 192.153 36.8234 192.112 36.92C192.07 37.0166 192.043 37.0994 192.001 37.1822C191.905 37.1546 191.822 37.127 191.753 37.0994C191.684 37.0718 191.601 37.058 191.519 37.0304C191.436 37.0166 191.353 37.0028 191.27 36.989C191.187 36.9752 191.091 36.9752 190.967 36.9752C190.76 36.9752 190.567 36.989 190.415 37.0304C190.249 37.0718 190.111 37.127 190.001 37.2236C189.89 37.3201 189.808 37.4581 189.753 37.6237C189.697 37.7892 189.67 38.01 189.67 38.2721V38.686H192.622V43.6528C192.581 43.6666 192.526 43.6666 192.457 43.6666C192.388 43.6666 192.333 43.6666 192.291 43.6666C192.264 43.6666 192.208 43.6666 192.139 43.6666C192.07 43.6666 192.015 43.6528 191.974 43.6528V39.2379H189.67V43.6528C189.628 43.6666 189.573 43.6666 189.504 43.6666C189.435 43.6666 189.38 43.6666 189.339 43.6666C189.311 43.6666 189.256 43.6666 189.187 43.6666C189.118 43.6666 189.063 43.6528 189.021 43.6528V39.2379H189.035Z" fill="#838383" stroke="#838383" stroke-width="0.344919" stroke-miterlimit="10"/>
<path d="M198.113 43.0457C198.141 43.1147 198.182 43.1975 198.21 43.3078C198.237 43.4182 198.265 43.5148 198.279 43.5838C198.113 43.639 197.934 43.6942 197.727 43.7356C197.52 43.7769 197.285 43.7907 197.037 43.7907C196.223 43.7907 195.602 43.57 195.188 43.1285C194.761 42.687 194.554 42.0385 194.554 41.1969C194.554 40.8244 194.609 40.4795 194.705 40.1622C194.816 39.8449 194.968 39.5689 195.161 39.3344C195.368 39.0998 195.616 38.9205 195.92 38.7825C196.223 38.6445 196.568 38.5894 196.968 38.5894C197.216 38.5894 197.451 38.6032 197.672 38.6445C197.893 38.6859 198.072 38.7273 198.196 38.7687C198.196 38.8515 198.182 38.9481 198.168 39.0584C198.141 39.1688 198.127 39.2516 198.099 39.3206C197.975 39.2792 197.81 39.2378 197.603 39.2102C197.41 39.1826 197.189 39.155 196.968 39.155C196.678 39.155 196.416 39.2102 196.209 39.3068C195.989 39.4034 195.809 39.5551 195.657 39.7345C195.506 39.9138 195.409 40.1346 195.326 40.3829C195.257 40.6313 195.216 40.9072 195.216 41.1969C195.216 41.9006 195.382 42.4111 195.713 42.7422C196.044 43.0733 196.499 43.2389 197.065 43.2389C197.258 43.2389 197.451 43.2251 197.63 43.1837C197.81 43.1423 197.975 43.0871 198.113 43.0457Z" fill="#838383" stroke="#838383" stroke-width="0.344919" stroke-miterlimit="10"/>
<path d="M200.294 39.2381H199.673C199.659 39.2105 199.659 39.1691 199.659 39.1277C199.659 39.0863 199.659 39.0311 199.659 38.9759C199.659 38.9208 199.659 38.8794 199.659 38.8242C199.659 38.769 199.673 38.7276 199.673 38.7H200.942V43.6668C200.901 43.6806 200.846 43.6806 200.777 43.6806C200.708 43.6806 200.653 43.6806 200.611 43.6806C200.584 43.6806 200.528 43.6806 200.459 43.6806C200.39 43.6806 200.335 43.6668 200.294 43.6668V39.2381ZM199.976 37.4721C199.963 37.4169 199.963 37.3479 199.963 37.2651C199.963 37.1824 199.963 37.1134 199.963 37.0444C199.963 36.9892 199.963 36.934 199.963 36.8512C199.963 36.7685 199.976 36.7133 199.976 36.6581C200.032 36.6443 200.101 36.6443 200.197 36.6443C200.28 36.6443 200.349 36.6443 200.418 36.6443C200.473 36.6443 200.528 36.6443 200.611 36.6443C200.694 36.6443 200.749 36.6581 200.804 36.6581C200.818 36.7133 200.818 36.7685 200.818 36.8512C200.818 36.934 200.818 36.9892 200.818 37.0444C200.818 37.0996 200.818 37.1686 200.818 37.2651C200.818 37.3479 200.804 37.4169 200.804 37.4721C200.749 37.4859 200.694 37.4859 200.611 37.4859C200.528 37.4859 200.473 37.4859 200.418 37.4859C200.363 37.4859 200.294 37.4859 200.197 37.4859C200.101 37.4859 200.032 37.4859 199.976 37.4721Z" fill="#838383" stroke="#838383" stroke-width="0.344919" stroke-miterlimit="10"/>
<path d="M205.867 40.3831C205.867 39.9554 205.77 39.638 205.563 39.4449C205.356 39.2517 205.066 39.1414 204.666 39.1414C204.404 39.1414 204.17 39.1551 203.949 39.1965C203.728 39.2379 203.549 39.2793 203.369 39.3345C203.342 39.2793 203.314 39.1965 203.287 39.0862C203.259 38.9758 203.259 38.8792 203.259 38.7688C203.425 38.7137 203.632 38.6723 203.88 38.6309C204.128 38.5895 204.377 38.5757 204.639 38.5757C205.273 38.5757 205.729 38.7137 206.046 38.9896C206.349 39.2655 206.501 39.6932 206.501 40.2865V43.5701C206.28 43.6115 206.005 43.6667 205.673 43.7081C205.342 43.7495 205.039 43.7771 204.749 43.7771C204.142 43.7771 203.673 43.6529 203.328 43.4183C202.983 43.1838 202.804 42.7837 202.804 42.2456C202.804 41.9835 202.859 41.7489 202.955 41.5558C203.052 41.3488 203.19 41.1833 203.369 41.0453C203.549 40.9073 203.756 40.797 204.018 40.728C204.266 40.659 204.542 40.6176 204.846 40.6176C205.08 40.6176 205.287 40.6314 205.453 40.6452C205.618 40.659 205.756 40.6728 205.867 40.6866V40.3831ZM205.867 41.2523C205.756 41.2385 205.618 41.2247 205.453 41.2109C205.287 41.1971 205.135 41.1833 204.984 41.1833C204.501 41.1833 204.114 41.2798 203.852 41.4592C203.59 41.6386 203.452 41.9007 203.452 42.2456C203.452 42.4526 203.494 42.6319 203.576 42.7561C203.659 42.8803 203.756 42.9906 203.894 43.0596C204.018 43.1286 204.17 43.17 204.321 43.1976C204.473 43.2252 204.639 43.239 204.79 43.239C204.997 43.239 205.177 43.2252 205.356 43.2114C205.535 43.1976 205.701 43.17 205.867 43.1286V41.2523Z" fill="#838383" stroke="#838383" stroke-width="0.344919" stroke-miterlimit="10"/>
<path d="M208.614 36.5062C208.656 36.5062 208.711 36.4924 208.78 36.4924C208.849 36.4924 208.904 36.4924 208.945 36.4924C208.973 36.4924 209.028 36.4924 209.097 36.4924C209.166 36.4924 209.221 36.5062 209.263 36.5062V42.5216C209.263 42.6872 209.277 42.8251 209.318 42.9217C209.359 43.0183 209.401 43.0873 209.47 43.1287C209.525 43.1701 209.594 43.1977 209.663 43.2115C209.732 43.2253 209.801 43.2253 209.856 43.2253C209.925 43.2253 210.008 43.2253 210.077 43.2115C210.146 43.1977 210.215 43.1839 210.27 43.1839C210.297 43.2666 210.325 43.3494 210.339 43.4322C210.353 43.5288 210.366 43.6116 210.366 43.6805C210.27 43.7081 210.173 43.7357 210.063 43.7495C209.953 43.7633 209.842 43.7633 209.746 43.7633C209.608 43.7633 209.47 43.7495 209.332 43.7219C209.194 43.6943 209.07 43.6392 208.973 43.5564C208.863 43.4736 208.78 43.3632 208.711 43.2253C208.642 43.0873 208.614 42.9079 208.614 42.6734V36.5062Z" fill="#838383" stroke="#838383" stroke-width="0.344919" stroke-miterlimit="10"/>
</g>
<defs>
<linearGradient id="paint0_linear" x1="1.2593" y1="21.5815" x2="39.4162" y2="21.5815" gradientUnits="userSpaceOnUse">
<stop stop-color="#10A91F"/>
<stop offset="1" stop-color="#069308"/>
</linearGradient>
<linearGradient id="paint1_linear" x1="0.311762" y1="21.6876" x2="7.15159" y2="21.6876" gradientUnits="userSpaceOnUse">
<stop stop-color="#10A91F"/>
<stop offset="1" stop-color="#069308"/>
</linearGradient>
<linearGradient id="paint2_linear" x1="15.2156" y1="49.2876" x2="32.8668" y2="49.2876" gradientUnits="userSpaceOnUse">
<stop stop-color="#D3B22A"/>
<stop offset="0.2051" stop-color="#BE992C"/>
<stop offset="0.4367" stop-color="#B0892D"/>
<stop offset="0.6894" stop-color="#A8802D"/>
<stop offset="1" stop-color="#A57D2D"/>
</linearGradient>
<clipPath id="clip0">
<rect width="210.249" height="52" fill="white" transform="translate(0.30957)"/>
</clipPath>
</defs>
</svg>
