<svg width="122" height="47" viewBox="0 0 122 47" fill="none" xmlns="http://www.w3.org/2000/svg">
<g clip-path="url(#clip0)">
<path d="M45.8874 34.0468C40.2594 30.4074 34.6912 26.8091 29.1291 23.2129C29.3946 22.6798 31.0929 20.6789 31.6425 20.2528C31.7928 20.3516 31.9534 20.4607 32.118 20.5636C32.7088 20.9362 33.4149 20.8168 33.7813 20.2857C34.156 19.7443 34.0345 19.0485 33.4561 18.6348C32.4104 17.8896 31.3523 17.163 30.2983 16.4301C27.4596 14.4581 24.621 12.484 21.7823 10.5119C21.6464 10.4172 21.5126 10.3205 21.3665 10.2464C20.8374 9.98081 20.2055 10.1434 19.874 10.619C19.5385 11.0986 19.6023 11.7388 20.0449 12.1443C20.2384 12.3213 20.4607 12.4634 20.7221 12.661C19.0321 16.0267 17.0518 19.1823 14.3366 21.8811C14.1699 21.7781 14.0238 21.7061 13.9002 21.6052C13.26 21.0844 12.4778 21.2738 12.1114 21.7925C11.7532 22.2989 11.8479 23.0709 12.5416 23.5402C14.1925 24.6539 15.8167 25.8066 17.4512 26.9429C19.6949 28.5033 21.9367 30.0636 24.1846 31.6178C24.3575 31.7372 24.5469 31.8586 24.7465 31.9142C25.2859 32.0686 25.8334 31.8175 26.0866 31.3378C26.3522 30.8335 26.2328 30.251 25.7778 29.8722C25.6029 29.7281 25.4135 29.6005 25.1788 29.4255C25.7778 28.3304 26.3666 27.2538 26.9512 26.1833C27.4349 26.3604 44.6729 39.0449 45.1711 39.5822C30.1048 39.5822 15.0695 39.5822 -0.00292969 39.5822C-0.000871178 26.453 -0.000871178 13.3238 -0.000871178 0.159668C15.2897 0.159668 30.5742 0.159668 45.8874 0.159668C45.8874 11.4465 45.8874 22.7168 45.8874 34.0468ZM24.4851 34.3762C24.4748 33.8842 24.1454 33.5116 23.6864 33.1926C19.5344 30.3148 15.3865 27.4287 11.2365 24.5448C11.1007 24.4501 10.9669 24.3533 10.8207 24.2813C9.86968 23.814 8.79925 24.5118 8.83425 25.5699C8.85278 26.1401 9.18625 26.4942 9.62883 26.7988C13.7808 29.6787 17.9287 32.5647 22.0787 35.4466C22.2146 35.5413 22.3484 35.6381 22.4966 35.7101C23.4208 36.1671 24.4913 35.4981 24.4851 34.3762ZM37.0338 16.3766C37.0214 15.862 36.6859 15.4914 36.2289 15.1744C32.0625 12.2863 27.9022 9.39208 23.7379 6.49988C23.6164 6.41548 23.495 6.32696 23.3632 6.26109C22.4369 5.80616 21.3726 6.48547 21.3809 7.51678C21.385 8.08699 21.6979 8.45546 22.1405 8.76424C26.3316 11.6729 30.5206 14.5857 34.7097 17.4964C34.8312 17.5808 34.9567 17.6632 35.0905 17.7229C36.0127 18.1346 37.0461 17.4532 37.0338 16.3766Z" fill="url(#paint0_linear)"/>
<path d="M0.00976562 46.9002C0.00976562 45.1443 0.00976562 43.4069 0.00976562 41.6387C15.3127 41.6387 30.5951 41.6387 45.9104 41.6387C45.9104 43.3987 45.9104 45.134 45.9104 46.9002C30.6054 46.9002 15.323 46.9002 0.00976562 46.9002Z" fill="url(#paint1_linear)"/>
<path d="M85.0496 33.7731C85.0682 34.8662 84.9591 35.9119 84.642 36.9247C83.8701 39.4011 82.2521 41.0026 79.714 41.6222C78.1022 42.0154 76.4759 42.001 74.8806 41.5605C72.5463 40.9162 70.988 39.4052 70.2551 37.1079C69.5738 34.9691 69.5552 32.7892 70.2263 30.6442C71.0621 27.964 72.9168 26.3913 75.6793 25.8932C76.9576 25.6626 78.2401 25.6708 79.504 25.9508C82.2727 26.5683 83.9874 28.3057 84.7285 31.0209C84.9776 31.9328 85.0723 32.8653 85.0496 33.7731ZM80.9656 33.6846C80.947 33.4047 80.9408 33.0424 80.8976 32.6821C80.772 31.6364 80.4612 30.6648 79.7901 29.8249C78.6065 28.3448 76.3113 28.3737 75.1441 29.722C74.683 30.2531 74.3577 30.8562 74.1684 31.5294C73.7999 32.8344 73.7793 34.156 74.0325 35.4838C74.1889 36.303 74.5039 37.0503 75.0206 37.7152C76.2001 39.2385 78.6683 39.2879 79.8519 37.6719C80.1216 37.3055 80.3398 36.8918 80.5189 36.4718C80.8853 35.6134 80.9429 34.6912 80.9656 33.6846Z" fill="#414141"/>
<path d="M63.5746 38.7075C63.5746 37.6412 63.5746 36.6078 63.5746 35.5147C62.8088 35.453 62.0554 35.5168 61.3144 35.4756C61.197 35.1154 61.1723 33.2483 61.2794 32.6534C63.2761 32.6534 65.277 32.6534 67.2799 32.6534C67.389 32.991 67.4281 40.3996 67.3232 41.19C66.5677 41.4453 65.7752 41.5832 64.9806 41.6903C63.4758 41.892 61.9649 41.9579 60.4498 41.7994C59.3814 41.6882 58.3357 41.4782 57.3394 41.0686C55.005 40.1052 53.6155 38.3637 53.1709 35.8894C52.9054 34.4175 52.9157 32.9334 53.2821 31.4759C53.9676 28.7443 55.7338 27.0357 58.3892 26.2103C59.787 25.7759 61.23 25.6668 62.6874 25.7286C64.0069 25.7842 65.3058 25.9879 66.5821 26.3317C66.7221 26.3688 66.8579 26.4243 67.0411 26.484C66.9259 27.5154 66.8106 28.5343 66.6933 29.5924C66.5409 29.5306 66.4504 29.4977 66.366 29.4565C64.8468 28.7134 63.2555 28.4458 61.5717 28.6393C59.0603 28.9275 57.2962 30.774 57.1706 33.2998C57.1356 33.9935 57.15 34.6831 57.3126 35.3624C57.8231 37.5012 59.4329 38.8248 61.6581 38.9318C62.4095 38.973 63.1135 38.8927 63.5746 38.7075Z" fill="#414141"/>
<path d="M98.5941 26.1318C100.27 26.1318 101.88 26.1318 103.537 26.1318C105.465 31.2308 107.396 36.3297 109.36 41.5151C107.876 41.5212 106.456 41.5192 105.008 41.5171C104.636 40.4241 104.272 39.3536 103.897 38.2503C103.712 38.2503 103.549 38.2503 103.388 38.2503C101.742 38.2503 100.097 38.2503 98.45 38.2503C97.8798 38.2503 97.9581 38.2194 97.7687 38.7484C97.5031 39.4916 97.2437 40.2367 96.9782 40.9799C96.9185 41.1487 96.8526 41.3154 96.7868 41.4904C95.4549 41.4904 94.1457 41.4904 92.7686 41.4904C94.7221 36.3441 96.655 31.2452 98.5941 26.1318ZM101.031 29.6375C100.754 30.0368 99.0738 34.934 99.0655 35.319C99.7325 35.4198 102.54 35.3848 102.911 35.2572C102.287 33.3943 101.665 31.5313 101.031 29.6375Z" fill="#414141"/>
<path d="M110.097 41.1982C110.206 40.103 110.315 39.012 110.43 37.8696C110.607 37.9313 110.741 37.9704 110.869 38.0239C111.849 38.4212 112.857 38.7074 113.915 38.8082C114.545 38.8679 115.173 38.8473 115.77 38.6415C116.089 38.5324 116.41 38.3615 116.662 38.1392C117.271 37.5999 117.261 36.7497 116.612 36.2639C116.184 35.9428 115.686 35.7019 115.192 35.4879C114.574 35.2182 113.911 35.0535 113.302 34.7694C112.649 34.4648 112.001 34.1251 111.416 33.7093C110.457 33.0321 109.971 32.0501 109.953 30.8789C109.943 30.3086 109.978 29.7199 110.109 29.1682C110.381 28.0155 111.122 27.1941 112.147 26.6239C112.981 26.1608 113.891 25.9281 114.827 25.8293C116.627 25.642 118.411 25.7552 120.169 26.1999C120.278 26.2266 120.383 26.2719 120.536 26.3234C120.439 27.3403 120.344 28.351 120.243 29.4194C120.005 29.335 119.825 29.2732 119.646 29.2073C118.584 28.8183 117.495 28.5939 116.359 28.6577C115.846 28.6865 115.344 28.7709 114.881 29.0097C113.874 29.5285 113.806 30.638 114.759 31.2514C115.06 31.4449 115.408 31.5664 115.746 31.692C116.684 32.0419 117.633 32.3651 118.572 32.7233C118.893 32.8447 119.202 33.0115 119.492 33.1967C120.562 33.8781 121.155 34.8621 121.277 36.1219C121.341 36.7806 121.301 37.4373 121.149 38.0857C120.801 39.574 119.889 40.5868 118.514 41.2085C117.555 41.6428 116.532 41.8095 115.492 41.8672C113.736 41.966 112.009 41.7498 110.311 41.297C110.249 41.2784 110.194 41.2414 110.097 41.1982Z" fill="#414141"/>
<path d="M87.9375 14.4026C87.9869 13.4989 88.0878 12.6178 88.3842 11.7697C89.115 9.67416 90.6094 8.48846 92.7771 8.13234C93.7281 7.97589 94.6791 8.00265 95.624 8.20439C97.6516 8.63873 99.0061 9.84502 99.6442 11.8047C100.192 13.4927 100.198 15.2157 99.671 16.9098C98.9917 19.0877 97.4705 20.3146 95.2246 20.6604C94.2715 20.8066 93.3205 20.7881 92.3777 20.5822C90.1401 20.0902 88.7774 18.6904 88.2339 16.4961C88.0651 15.8168 88.0322 15.1025 87.9375 14.4026ZM91.2105 14.3449C91.2291 14.6578 91.2311 14.9707 91.2682 15.2815C91.3629 16.0782 91.5996 16.8254 92.1101 17.4615C93.1105 18.7048 94.9405 18.7172 95.9101 17.4533C96.2024 17.0704 96.433 16.6072 96.5709 16.1441C96.9167 14.9851 96.9002 13.8035 96.5874 12.6343C96.4453 12.1053 96.2065 11.6174 95.8381 11.2036C95.1855 10.4729 94.3745 10.2279 93.4296 10.4482C92.4703 10.6725 91.9392 11.3621 91.5811 12.2164C91.2929 12.8957 91.2188 13.6162 91.2105 14.3449Z" fill="#414141"/>
<path d="M105.212 10.5799C105.212 11.4425 105.212 12.2247 105.212 13.0522C106.83 13.0522 108.421 13.0522 110.074 13.0522C110.12 13.8221 110.097 14.5508 110.091 15.3372C108.448 15.3372 106.859 15.3372 105.286 15.3372C105.165 15.7345 105.136 17.3957 105.231 18.1491C105.801 18.1861 106.39 18.1614 106.974 18.1656C107.567 18.1697 108.16 18.1656 108.753 18.1656C109.341 18.1656 109.932 18.1656 110.554 18.1656C110.554 18.956 110.554 19.6868 110.554 20.4423C107.693 20.4423 104.866 20.4423 102.005 20.4423C102.005 16.4138 102.005 12.4058 102.005 8.36499C104.78 8.36499 107.538 8.36499 110.301 8.36499C110.422 8.69435 110.443 10.0365 110.321 10.5799C108.642 10.5799 106.951 10.5799 105.212 10.5799Z" fill="#414141"/>
<path d="M70.5674 13.0501C70.5674 13.8426 70.5674 14.5589 70.5674 15.3453C68.9391 15.3453 67.3355 15.3453 65.7052 15.3453C65.7052 16.2984 65.7052 17.1815 65.7052 18.116C66.1354 18.2169 66.5759 18.1552 67.0123 18.1634C67.457 18.1737 67.9016 18.1654 68.3462 18.1654C68.7909 18.1654 69.2355 18.1654 69.6801 18.1654C70.1227 18.1654 70.5653 18.1654 70.9955 18.1654C71.1088 18.5627 71.1252 19.8411 71.0305 20.4298C68.2124 20.4298 65.3882 20.4298 62.568 20.4298C62.4548 20.0675 62.4218 8.99891 62.5351 8.36694C65.2873 8.36694 68.0477 8.36694 70.8329 8.36694C70.9605 8.70248 70.8741 9.06478 70.8885 9.41884C70.9029 9.77908 70.8926 10.1393 70.8926 10.5654C70.2915 10.586 69.7213 10.5737 69.1511 10.5757C68.5912 10.5778 68.0313 10.5757 67.4714 10.5757C66.8991 10.5757 66.3248 10.5757 65.6846 10.5757C65.6702 11.4177 65.6743 12.2122 65.6805 13.048C67.3252 13.0501 68.9164 13.0501 70.5674 13.0501Z" fill="#414141"/>
<path d="M112.502 20.2632C112.592 19.3595 112.677 18.5135 112.767 17.6016C112.955 17.6695 113.101 17.7189 113.245 17.7745C114.301 18.1738 115.377 18.4497 116.522 18.3076C116.905 18.2603 117.263 18.145 117.57 17.9103C118.173 17.4472 118.206 16.7288 117.59 16.2924C117.195 16.0103 116.728 15.823 116.281 15.6233C115.921 15.4628 115.536 15.364 115.172 15.2116C114.809 15.0593 114.451 14.8905 114.105 14.7011C112.211 13.6739 112.1 11.8316 112.635 10.3721C112.973 9.44987 113.694 8.88584 114.579 8.51737C115.239 8.24153 115.937 8.14889 116.643 8.06861C117.514 7.96774 119.813 8.13654 120.695 8.49884C120.686 9.27901 120.571 10.0654 120.48 10.9135C120.268 10.8435 120.102 10.792 119.935 10.7344C119.007 10.4071 118.058 10.2239 117.076 10.3824C116.742 10.4359 116.396 10.545 116.11 10.7179C115.517 11.0782 115.47 11.8254 116.018 12.2556C116.293 12.4718 116.645 12.6097 116.979 12.7373C117.654 12.9967 118.342 13.219 119.019 13.4722C119.28 13.5689 119.531 13.6966 119.772 13.8386C120.74 14.4088 121.267 15.2528 121.304 16.3809C121.316 16.7576 121.312 17.1425 121.248 17.5131C120.948 19.2669 119.776 20.1603 118.142 20.5473C116.825 20.8581 115.495 20.8067 114.167 20.6029C113.621 20.5144 113.082 20.3806 112.502 20.2632Z" fill="#414141"/>
<path d="M87.5857 26.134C88.9114 26.134 90.2062 26.134 91.4969 26.134C91.6204 26.4984 91.6513 40.8833 91.5278 41.4864C90.2247 41.4864 88.9155 41.4864 87.6063 41.4864C87.5075 41.1406 87.4807 26.7578 87.5857 26.134Z" fill="#414141"/>
<path d="M86.8425 18.11C86.8425 18.9005 86.8425 19.6498 86.8425 20.4299C84.1602 20.4299 81.5006 20.4299 78.8431 20.4299C78.7443 20.0738 78.7196 8.97023 78.8205 8.36914C79.8394 8.36914 80.8666 8.36914 81.9597 8.36914C81.9885 9.16373 81.97 9.96243 81.972 10.7632C81.9762 11.5701 81.972 12.3771 81.972 13.184C81.972 13.9909 81.972 14.7979 81.972 15.6048C81.972 16.4097 81.972 17.2146 81.972 18.0915C83.6085 18.1224 85.2121 18.0894 86.8425 18.11Z" fill="#414141"/>
<path d="M56.0159 18.0977C57.6751 18.0977 59.2519 18.0977 60.8184 18.0977C60.9378 18.4682 60.9584 19.8453 60.8576 20.4341C58.2062 20.4341 55.5507 20.4341 52.8623 20.4341C52.8623 16.4117 52.8623 12.4079 52.8623 8.36914C53.8957 8.36914 54.9208 8.36914 56.0159 8.36914C56.0159 9.99125 56.0159 11.5969 56.0159 13.2046C56.0159 14.8123 56.0159 16.42 56.0159 18.0977Z" fill="#414141"/>
<path d="M76.3209 20.4381C75.2773 20.4381 74.2624 20.4381 73.2188 20.4381C73.2188 16.4076 73.2188 12.4038 73.2188 8.36499C74.2562 8.36499 75.2814 8.36499 76.3024 8.36499C76.4033 8.75817 76.4218 19.8762 76.3209 20.4381Z" fill="#414141"/>
<path d="M95.8857 4.32812C96.2069 4.32812 96.4806 4.32812 96.8203 4.32812C96.6659 5.00949 96.4868 5.63116 95.9763 6.09227C95.5152 6.51014 94.9553 6.49574 94.3954 6.37428C94.0434 6.29812 93.6996 6.1849 93.3538 6.08197C92.9071 5.95023 92.4851 6.00169 92.2689 6.47309C92.1948 6.63366 92.0795 6.68306 91.9169 6.681C91.707 6.67688 91.497 6.67894 91.2314 6.67894C91.357 5.99552 91.5567 5.42119 92.0301 4.97656C92.3492 4.67601 92.7445 4.56279 93.1685 4.63073C93.572 4.6966 93.9651 4.81393 94.3645 4.91068C94.523 4.94979 94.6794 5.00537 94.84 5.03214C95.2661 5.10418 95.5276 4.97861 95.7437 4.60808C95.789 4.52368 95.8302 4.43311 95.8857 4.32812Z" fill="#414141"/>
<path d="M103.568 21.9593C103.191 22.299 102.816 22.6407 102.438 22.9803C101.962 23.4085 101.48 23.8305 101.011 24.2669C100.832 24.4337 100.653 24.5242 100.4 24.5119C100.006 24.4913 99.6133 24.5057 99.1748 24.5057C99.2119 24.3904 99.2263 24.2999 99.2695 24.2257C99.6688 23.5279 100.072 22.8301 100.474 22.1343C100.554 21.9943 100.62 21.8461 100.832 21.8482C101.731 21.8543 102.629 21.8502 103.529 21.8502C103.541 21.8873 103.555 21.9243 103.568 21.9593Z" fill="#414141"/>
</g>
<defs>
<linearGradient id="paint0_linear" x1="-1.75974e-07" y1="20" x2="46" y2="20" gradientUnits="userSpaceOnUse">
<stop stop-color="#004E27"/>
<stop offset="1" stop-color="#017403"/>
</linearGradient>
<linearGradient id="paint1_linear" x1="46" y1="47" x2="-8.51556e-07" y2="47" gradientUnits="userSpaceOnUse">
<stop stop-color="#D3B22A"/>
<stop offset="0.2051" stop-color="#BE992C"/>
<stop offset="0.4367" stop-color="#B0892D"/>
<stop offset="0.6894" stop-color="#A8802D"/>
<stop offset="1" stop-color="#A57D2D"/>
</linearGradient>
<clipPath id="clip0">
<rect width="121.31" height="46.7405" fill="white" transform="translate(0 0.159668)"/>
</clipPath>
</defs>
</svg>
