<svg width="46" height="41" viewBox="0 0 46 41" fill="none" xmlns="http://www.w3.org/2000/svg">
<path d="M39.5595 10.9538C39.0518 11.2144 38.5779 11.4574 38.0702 11.7192C34.9592 6.3472 30.3951 2.96977 24.1611 1.95783C19.1976 1.1525 14.5492 2.1034 10.3183 4.78234C2.21127 9.91599 -0.620581 20.4615 3.77276 29.0489C8.11799 37.5412 18.465 41.4739 27.7786 38.1306C36.9935 34.8224 41.5986 25.621 39.906 17.0618C39.7568 17.2261 39.6353 17.3388 39.5391 17.4691C38.9532 18.2616 38.3746 19.061 37.7887 19.8546C37.3773 20.4122 36.86 20.5578 36.4197 20.2467C36.001 19.952 35.9746 19.4308 36.3619 18.8967C37.3929 17.4762 38.4251 16.0569 39.4633 14.6411C39.989 13.9238 40.3932 13.8769 41.1198 14.3887C42.5995 15.4288 44.0912 16.4537 45.5685 17.4961C46.0268 17.8202 46.1231 18.332 45.8428 18.7241C45.5564 19.1244 45.056 19.1843 44.5676 18.8767C44.4665 18.8133 44.3715 18.7417 44.2728 18.6736C43.6196 18.2205 42.9676 17.765 42.3132 17.3142C42.1556 17.2062 41.9872 17.1134 41.7309 16.9561C42.7595 24.3015 40.6326 30.5152 35.1662 35.5338C31.4212 38.9723 26.9028 40.8025 21.7612 40.9868C11.3577 41.3566 2.01278 33.9361 0.296102 24.0198C-1.45787 13.8828 4.73396 4.01927 14.7994 0.930627C24.8974 -2.16858 35.2227 2.80307 39.5595 10.9538Z" fill="#FFC700"/>
<path d="M20.9749 25.3132C21.9493 24.1863 22.8383 23.1285 23.7671 22.106C23.974 21.8783 24.324 21.6317 24.6055 21.6329C26.4666 21.6447 28.229 22.0191 29.6822 23.26C30.5977 24.0419 31.1763 25.0526 31.2184 26.2183C31.2966 28.4218 31.2413 30.6289 31.2413 32.8734C30.6927 32.8734 30.161 32.8734 29.5655 32.8734C29.5559 32.6621 29.5366 32.4543 29.5366 32.2466C29.533 30.5256 29.5414 28.8034 29.5318 27.0824C29.5198 24.8988 28.3866 23.7178 26.161 23.3974C25.3069 23.2741 24.7487 23.4608 24.229 24.1487C23.4819 25.1383 22.6242 26.0505 21.8038 26.9873C21.2672 27.6001 20.7596 27.6059 20.1942 27.0049C19.1644 25.9096 18.137 24.812 17.1253 23.7002C16.8414 23.3891 16.5431 23.2577 16.1232 23.3551C15.8718 23.4138 15.6047 23.4056 15.3497 23.4561C13.3611 23.8517 12.4721 24.8977 12.4384 26.9521C12.4096 28.693 12.4288 30.434 12.4264 32.1749C12.4264 32.3886 12.4264 32.6011 12.4264 32.8641C11.8646 32.8641 11.3557 32.8641 10.7699 32.8641C10.7542 32.7067 10.7206 32.5213 10.7206 32.3369C10.7169 30.576 10.7037 28.8151 10.723 27.0554C10.7518 24.2309 12.2532 22.4465 15.091 21.829C15.3064 21.782 15.5241 21.7538 15.7395 21.7069C16.9148 21.4521 17.8423 21.6764 18.5966 22.7259C19.2558 23.6404 20.1304 24.4093 20.9749 25.3132Z" fill="#FFC700"/>
<path d="M15.5434 13.5292C15.3762 11.7683 15.8995 10.2351 17.1843 8.98487C18.6411 7.56675 20.3927 6.96569 22.3993 7.5597C24.472 8.17368 25.8892 9.57185 26.2958 11.6415C26.6675 13.5398 26.7505 15.4967 25.5812 17.2577C24.2339 19.2874 21.7978 20.2688 19.6143 19.6431C17.2432 18.9646 15.5434 16.754 15.5446 14.3498C15.5446 14.0763 15.5434 13.8027 15.5434 13.5292ZM24.768 13.5691C24.7475 13.568 24.7271 13.5656 24.7066 13.5644C24.7066 13.1735 24.7211 12.7826 24.7042 12.3928C24.6224 10.5004 23.103 9.10696 21.0736 9.05061C19.0694 8.99544 17.449 10.3408 17.319 12.2402C17.2553 13.1723 17.2481 14.1185 17.3323 15.0471C17.4899 16.7893 18.9455 18.0419 20.8258 18.1499C22.5978 18.252 24.1978 17.1414 24.5719 15.4838C24.7114 14.8605 24.7066 14.2077 24.768 13.5691Z" fill="#FFC700"/>
</svg>
