<svg width="40" height="41" viewBox="0 0 40 41" fill="none" xmlns="http://www.w3.org/2000/svg">
<path d="M18.7069 10.327C19.3092 10.327 19.8315 10.327 20.4475 10.327C20.4475 9.63225 20.4475 8.9554 20.4475 8.27855C20.4475 8.06769 20.4433 7.85684 20.4485 7.64598C20.4643 7.06086 20.7391 6.7762 21.3267 6.77304C22.8535 6.76566 24.3792 6.76987 25.906 6.76987C26.1145 6.76987 26.323 6.76987 26.5799 6.76987C26.5799 6.17421 26.5799 5.62598 26.5799 5.02293C25.5111 5.02293 24.4782 5.02504 23.4463 5.02082C23.2726 5.01977 23.0904 5.02398 22.9261 4.97865C22.545 4.87322 22.3186 4.61387 22.3502 4.20692C22.3828 3.78415 22.6334 3.53112 23.0609 3.50371C23.4105 3.48157 23.7653 3.46892 24.1128 3.50371C24.5487 3.54588 24.6551 3.35611 24.6425 2.95654C24.6182 2.25439 24.6298 1.55118 24.6393 0.849031C24.6467 0.289208 24.8888 0.0119318 25.3532 0.000334682C25.8407 -0.0112624 26.1219 0.278665 26.1334 0.849031C26.1482 1.56911 26.1524 2.29023 26.1334 3.00925C26.125 3.35927 26.2187 3.50055 26.602 3.50477C28.1299 3.52374 28.1299 3.53639 28.1267 5.06616C28.1256 5.607 28.1267 6.14785 28.1267 6.76987C28.5816 6.76987 28.9775 6.76566 29.3734 6.77093C30.0568 6.77936 30.3116 7.04715 30.3105 7.74087C30.3084 8.46094 30.3221 9.18207 30.3011 9.90109C30.2905 10.249 30.42 10.365 30.7591 10.3523C31.3024 10.3323 31.8468 10.3428 32.3912 10.3481C33.0451 10.3544 33.3462 10.6665 33.3452 11.3244C33.3388 17.3327 33.3325 23.3411 33.3283 29.3484C33.3262 32.9846 33.3273 36.6218 33.3252 40.2581C33.3252 40.4826 33.3041 40.7072 33.2915 40.9571C32.8018 40.9571 32.3512 40.9571 31.8047 40.9571C31.8047 40.7399 31.8047 40.5206 31.8047 40.3023C31.8047 31.1143 31.8057 21.9262 31.8036 12.7382C31.8036 11.7292 31.8794 11.8768 30.9223 11.8758C27.0622 11.8705 23.202 11.8747 19.3419 11.8758C19.1513 11.8758 18.9607 11.8758 18.7132 11.8758C18.6985 12.1319 18.6753 12.3523 18.6743 12.5716C18.6722 21.6373 18.6722 30.7021 18.6732 39.7678C18.6732 41.015 18.6785 41.015 17.4697 40.9961C9.44298 40.8664 2.31129 34.9972 0.444391 26.9815C-1.56466 18.3606 3.41268 9.31175 11.8522 6.23746C13.8833 5.49736 15.9755 5.13996 18.1383 5.15893C18.5595 5.1621 18.6806 5.30021 18.6753 5.704C18.6574 7.00392 18.6669 8.30385 18.6701 9.60378C18.6722 9.8294 18.6932 10.054 18.7069 10.327ZM14.6341 7.13255C14.593 7.08721 14.5519 7.04293 14.5119 6.9976C8.84701 8.35551 4.71835 11.6269 2.63981 17.1451C0.509674 22.8044 1.36678 28.1539 4.81733 33.0805C6.29674 32.3699 7.69191 31.7005 9.08392 31.032C9.07129 30.9551 9.07129 30.9003 9.05339 30.8518C8.24366 28.7221 7.73087 26.5303 7.69086 24.2425C7.68559 23.9199 7.5466 23.8155 7.24019 23.8218C6.59157 23.8355 5.94294 23.825 5.29327 23.825C4.70466 23.825 4.11606 23.825 3.52535 23.825C3.52535 23.2862 3.52535 22.8371 3.52535 22.3047C4.93 22.3047 6.302 22.3047 7.69402 22.3047C7.88987 19.7966 8.49532 17.4677 9.44825 15.1999C8.55007 14.8109 7.69402 14.4398 6.80005 14.0518C7.04223 13.5573 7.24756 13.1398 7.46342 12.6981C8.21102 13.0133 8.92177 13.3001 9.62093 13.6143C9.97473 13.7724 10.1632 13.7208 10.3548 13.3465C11.4025 11.3096 12.7156 9.44775 14.1824 7.69342C14.3382 7.50998 14.4846 7.32021 14.6341 7.13255ZM10.596 30.5745C12.6703 29.9778 14.7109 29.5877 16.8042 29.5065C16.9285 29.5012 17.1454 29.263 17.1475 29.1312C17.1717 27.4981 17.1601 25.865 17.1675 24.2319C17.1685 23.9462 17.0717 23.8187 16.7726 23.8197C14.3698 23.8271 11.9669 23.8292 9.56513 23.8218C9.24397 23.8208 9.11551 23.9367 9.15237 24.2562C9.22397 24.8835 9.26714 25.5139 9.35769 26.1381C9.57776 27.6499 9.99157 29.1101 10.596 30.5745ZM9.20607 22.2404C9.31979 22.2762 9.36928 22.3047 9.41876 22.3047C11.8732 22.3089 14.3287 22.3068 16.7832 22.3163C17.137 22.3174 17.1696 22.1223 17.1685 21.844C17.1601 20.6674 17.1633 19.4908 17.1622 18.3143C17.1622 17.7745 17.1622 17.2347 17.1622 16.6759C16.9643 16.6538 16.8284 16.6422 16.6926 16.6221C15.17 16.3986 13.639 16.2183 12.128 15.9379C10.835 15.6975 10.8371 15.6438 10.3696 16.8973C9.72939 18.6116 9.29662 20.3722 9.20607 22.2404ZM11.2235 31.9872C12.704 34.9108 14.6193 37.3757 17.079 39.4273C17.1654 38.2781 17.1654 37.1753 17.1654 36.0726C17.1654 34.5618 17.1664 33.051 17.1643 31.5402C17.1643 31.2988 17.217 31.0268 16.82 31.0415C14.9394 31.1111 13.0989 31.4169 11.2235 31.9872ZM17.1243 15.0966C17.1243 12.2817 17.1243 9.56161 17.1243 6.81415C15.8924 7.61541 12.0796 12.7761 11.6279 14.2532C13.4126 14.7624 15.2258 15.0534 17.1243 15.0966ZM5.88609 34.236C7.57293 36.4047 12.644 39.2438 14.255 38.9423C12.4429 36.9887 10.9392 34.8496 9.72833 32.4174C8.42266 33.0362 7.17807 33.6245 5.88609 34.236ZM22.0058 10.3144C24.2876 10.3144 26.503 10.3144 28.7511 10.3144C28.7511 9.64279 28.7511 9.00495 28.7511 8.35024C26.4841 8.35024 24.2423 8.35024 22.0058 8.35024C22.0058 9.02393 22.0058 9.65017 22.0058 10.3144Z" fill="#FFC700"/>
<path d="M39.9609 40.9634C39.4439 40.9634 38.9922 40.9634 38.4689 40.9634C38.4689 40.7367 38.4689 40.5322 38.4689 40.3276C38.4689 37.0277 38.4604 33.7278 38.4773 30.4279C38.4794 29.9999 38.3709 29.8344 37.9245 29.8544C37.2074 29.886 36.4872 29.847 35.7691 29.8681C35.3921 29.8787 35.2342 29.769 35.2458 29.3631C35.2805 28.1496 35.152 28.3784 36.205 28.3637C37.1864 28.3489 38.1688 28.3531 39.1501 28.3658C39.724 28.3732 39.9999 28.6462 39.9999 29.2008C40.0009 33.0099 39.9957 36.819 39.9914 40.6271C39.9914 40.7283 39.9735 40.8295 39.9609 40.9634Z" fill="#FFC700"/>
<path d="M29.2123 18.7328C29.2123 19.2273 29.2123 19.6922 29.2123 20.1909C26.5704 20.1909 23.9549 20.1909 21.3014 20.1909C21.3014 19.7059 21.3014 19.241 21.3014 18.7328C23.9222 18.7328 26.5388 18.7328 29.2123 18.7328Z" fill="#FFC700"/>
<path d="M29.2123 27.0564C29.2123 27.5392 29.2123 28.0052 29.2123 28.507C26.5778 28.507 23.9622 28.507 21.3046 28.507C21.3046 28.0326 21.3046 27.5687 21.3046 27.0564C23.9159 27.0564 26.5325 27.0564 29.2123 27.0564Z" fill="#FFC700"/>
<path d="M21.2856 40.9634C21.2856 40.4499 21.2856 39.9977 21.2856 39.5043C23.9222 39.5043 26.5378 39.5043 29.1965 39.5043C29.1965 39.9766 29.1965 40.4531 29.1965 40.9634C26.5683 40.9634 23.9538 40.9634 21.2856 40.9634Z" fill="#FFC700"/>
<path d="M29.2133 14.6032C29.2133 15.0829 29.2133 15.5331 29.2133 16.0328C26.5715 16.0328 23.9433 16.0328 21.2888 16.0328C21.2888 15.551 21.2888 15.0997 21.2888 14.6032C23.9233 14.6032 26.5388 14.6032 29.2133 14.6032Z" fill="#FFC700"/>
<path d="M29.2376 32.644C26.5641 32.644 23.9507 32.644 21.2993 32.644C21.2993 32.1517 21.2993 31.6899 21.2993 31.186C21.5131 31.1744 21.7015 31.1554 21.89 31.1554C24.1297 31.1533 26.3704 31.1691 28.61 31.1427C29.1144 31.1364 29.3155 31.2714 29.2439 31.7859C29.2081 32.0431 29.2376 32.3088 29.2376 32.644Z" fill="#FFC700"/>
<path d="M29.2155 35.3725C29.2155 35.8533 29.2155 36.3035 29.2155 36.8042C26.5725 36.8042 23.9443 36.8042 21.2898 36.8042C21.2898 36.3203 21.2898 35.8691 21.2898 35.3725C23.9212 35.3725 26.5378 35.3725 29.2155 35.3725Z" fill="#FFC700"/>
<path d="M29.2112 22.9004C29.2112 23.3801 29.2112 23.8144 29.2112 24.3194C29.0396 24.3342 28.8574 24.3637 28.6742 24.3637C26.3767 24.3679 24.0791 24.3574 21.7816 24.3774C21.3488 24.3816 21.2456 24.2256 21.2572 23.8281C21.2919 22.7106 21.1329 22.8782 22.2048 22.874C24.3276 22.8645 26.4493 22.8709 28.5721 22.873C28.7774 22.8719 28.9828 22.8898 29.2112 22.9004Z" fill="#FFC700"/>
<path d="M35.2289 32.5207C35.7133 32.5207 36.1797 32.5207 36.6841 32.5207C36.6841 33.4274 36.6841 34.3256 36.6841 35.2566C36.1997 35.2566 35.7343 35.2566 35.2289 35.2566C35.2289 34.3594 35.2289 33.4727 35.2289 32.5207Z" fill="#FFC700"/>
<path d="M36.6883 40.9729C36.1818 40.9729 35.7291 40.9729 35.2331 40.9729C35.2331 40.062 35.2331 39.1627 35.2331 38.2222C35.6996 38.2222 36.1766 38.2222 36.6883 38.2222C36.6883 39.1279 36.6883 40.0272 36.6883 40.9729Z" fill="#FFC700"/>
</svg>
