<svg width="22" height="22" viewBox="0 0 22 22" fill="none" xmlns="http://www.w3.org/2000/svg">
<path fill-rule="evenodd" clip-rule="evenodd" d="M1.66667 0C1.22464 0 0.800716 0.175595 0.488155 0.488155C0.175595 0.800716 0 1.22464 0 1.66667V20C0 20.442 0.175595 20.866 0.488155 21.1785C0.800716 21.4911 1.22464 21.6667 1.66667 21.6667H14.1667C14.3877 21.6667 14.5996 21.5789 14.7559 21.4226C14.9122 21.2663 15 21.0543 15 20.8333C15 20.6123 14.9122 20.4004 14.7559 20.2441C14.5996 20.0878 14.3877 20 14.1667 20H1.66667V1.66667H14.1667C14.3877 1.66667 14.5996 1.57887 14.7559 1.42259C14.9122 1.26631 15 1.05435 15 0.833333C15 0.61232 14.9122 0.400358 14.7559 0.244078C14.5996 0.0877973 14.3877 0 14.1667 0H1.66667ZM17.6733 6.49333C17.5169 6.33686 17.3046 6.24895 17.0833 6.24895C16.862 6.24895 16.6498 6.33686 16.4933 6.49333C16.3369 6.64981 16.2489 6.86204 16.2489 7.08333C16.2489 7.30463 16.3369 7.51686 16.4933 7.67333L18.8217 10H7.5C7.27899 10 7.06703 10.0878 6.91074 10.2441C6.75446 10.4004 6.66667 10.6123 6.66667 10.8333C6.66667 11.0543 6.75446 11.2663 6.91074 11.4226C7.06703 11.5789 7.27899 11.6667 7.5 11.6667H18.8217L16.4933 13.9933C16.3369 14.1498 16.2489 14.362 16.2489 14.5833C16.2489 14.8046 16.3369 15.0169 16.4933 15.1733C16.6498 15.3298 16.862 15.4177 17.0833 15.4177C17.3046 15.4177 17.5169 15.3298 17.6733 15.1733L21.4233 11.4233C21.5009 11.3459 21.5625 11.254 21.6045 11.1527C21.6465 11.0515 21.6682 10.9429 21.6682 10.8333C21.6682 10.7237 21.6465 10.6152 21.6045 10.5139C21.5625 10.4127 21.5009 10.3207 21.4233 10.2433L17.6733 6.49333Z" fill="#5F5F5F"/>
</svg>
